<?xml version="1.0" encoding="utf-8"?>
<!-- Generator: Adobe Illustrator 24.0.1, SVG Export Plug-In . SVG Version: 6.00 Build 0)  -->
<svg version="1.1" id="Calque_1" xmlns="http://www.w3.org/2000/svg" xmlns:xlink="http://www.w3.org/1999/xlink" x="0px" y="0px"
	 viewBox="0 0 1366 710" style="enable-background:new 0 0 1366 710;" xml:space="preserve">
<style type="text/css">
	.st0{clip-path:url(#SVGID_2_);fill:url(#SVGID_3_);}
	.st1{display:none;clip-path:url(#SVGID_2_);fill:url(#SVGID_4_);}
	.st2{clip-path:url(#SVGID_2_);fill:url(#SVGID_5_);}
	.st3{clip-path:url(#SVGID_2_);fill:url(#SVGID_6_);}
	.st4{clip-path:url(#SVGID_2_);fill:url(#SVGID_7_);}
	.st5{clip-path:url(#SVGID_2_);fill:url(#SVGID_8_);}
	.st6{clip-path:url(#SVGID_2_);fill:url(#SVGID_9_);}
	.st7{display:none;clip-path:url(#SVGID_2_);fill:url(#SVGID_10_);}
	.st8{clip-path:url(#SVGID_2_);fill:url(#SVGID_11_);}
	.st9{clip-path:url(#SVGID_2_);fill:url(#SVGID_12_);}
	.st10{clip-path:url(#SVGID_2_);fill:url(#SVGID_13_);}
	.st11{clip-path:url(#SVGID_2_);fill:url(#SVGID_14_);}
	.st12{clip-path:url(#SVGID_2_);fill:url(#SVGID_15_);}
	.st13{clip-path:url(#SVGID_2_);fill:url(#SVGID_16_);}
	.st14{clip-path:url(#SVGID_2_);fill:url(#SVGID_17_);}
	.st15{clip-path:url(#SVGID_2_);fill:url(#SVGID_18_);}
	.st16{clip-path:url(#SVGID_2_);fill:url(#SVGID_19_);}
	.st17{clip-path:url(#SVGID_2_);fill:url(#SVGID_20_);}
	.st18{clip-path:url(#SVGID_2_);fill:url(#SVGID_21_);}
	.st19{clip-path:url(#SVGID_2_);fill:url(#SVGID_22_);}
	.st20{clip-path:url(#SVGID_25_);fill:url(#SVGID_26_);}
	.st21{display:none;clip-path:url(#SVGID_25_);fill:url(#SVGID_27_);}
	.st22{clip-path:url(#SVGID_25_);fill:url(#SVGID_28_);}
	.st23{clip-path:url(#SVGID_25_);fill:url(#SVGID_29_);}
	.st24{clip-path:url(#SVGID_25_);fill:url(#SVGID_30_);}
	.st25{clip-path:url(#SVGID_25_);fill:url(#SVGID_31_);}
	.st26{clip-path:url(#SVGID_25_);fill:url(#SVGID_32_);}
	.st27{display:none;clip-path:url(#SVGID_25_);fill:url(#SVGID_33_);}
	.st28{clip-path:url(#SVGID_25_);fill:url(#SVGID_34_);}
	.st29{clip-path:url(#SVGID_25_);fill:url(#SVGID_35_);}
	.st30{clip-path:url(#SVGID_25_);fill:url(#SVGID_36_);}
	.st31{clip-path:url(#SVGID_25_);fill:url(#SVGID_37_);}
	.st32{clip-path:url(#SVGID_25_);fill:url(#SVGID_38_);}
	.st33{clip-path:url(#SVGID_25_);fill:url(#SVGID_39_);}
	.st34{clip-path:url(#SVGID_25_);fill:url(#SVGID_40_);}
	.st35{clip-path:url(#SVGID_25_);fill:url(#SVGID_41_);}
	.st36{clip-path:url(#SVGID_25_);fill:url(#SVGID_42_);}
	.st37{clip-path:url(#SVGID_25_);fill:url(#SVGID_43_);}
	.st38{clip-path:url(#SVGID_25_);fill:url(#SVGID_44_);}
	.st39{clip-path:url(#SVGID_25_);fill:url(#SVGID_45_);}
	.st40{fill:none;}
	.st41{fill:#3D7189;}
	.st42{fill:#EE4623;}
	.st43{fill:url(#SVGID_48_);}
	.st44{fill:url(#SVGID_49_);}
	.st45{fill:url(#SVGID_50_);}
	.st46{fill:url(#SVGID_51_);}
	.st47{fill:url(#SVGID_52_);}
	.st48{fill:url(#SVGID_53_);}
</style>
<g>
	<g>
		<g>
			<defs>
				<path id="SVGID_1_" d="M1275.4,133.8c0,0,28.6,19.7,43.5,55.7c0,0,14.9,45.3,17.4,59.2c0,0,1.2,8.1,0,13.9
					c0,0-6.2,12.8-3.7,34.8c0,0,5,20.9,5,26.7c0,0,1.2,4.6-1.2,8.1c0,0,3.7-2.3,6.2,7c0,0,5,13.9,6.2,25.6c0,0,1.2,7-6.2,7
					c0,0-5,0-2.5-2.3c0,0,5-4.6-1.2-4.6c0,0-7.5-8.1-12.4-3.5c0,0,2.5,7-2.5,2.3c0,0-13.7-17.4-14.9-40.6c0,0-68.3-55.9-87.7-77.3
					c-0.2-0.2-0.3-0.4-0.5-0.6c-18.1-20.4-33.9-52.8-37-60.9c-0.1-0.2-0.2-0.4-0.2-0.6c-2.5-7-9.9-26.7,1.2-39.5c0,0,2.5-7-5-5.8
					c0,0-8.7,1.2-21.1-8.1c0,0-28.6,8.1-49.7,9.3c0,0-24.8,2.3-3.7-8.1c0,0,19.9-12.8,50.9-18.6c0,0,8.7-4.6,8.7-25.6
					c0,0,0-26.7,3.7-37.2c0,0,2.5-12.8,8.7-22.1c0,0,1.2-3.5,2.5-12.8c0,0,1.2,9.3,0,24.4c0,0,1.2-10.5,6.2-12.8c0,0-2.5,4.6,0,16.3
					c0,0,3.7,1.2,6.2-4.6c0,0,3.7-9.3,12.4-8.1c0,0-6.2,2.3-6.2,12.8c0,0,6.2,0,12.4-9.3c0,0,2.5-3.5,5-2.3c0,0-3.7,4.6-6.2,11.6
					c0,0-1.2,4.6,0,5.8c0,0,11.2,2.3,11.2-4.6c0,0,0-16.3,1.2-19.7c0,0,2.5,5.8,3.7,12.8c0,0,1.2-10.5,5-15.1c0,0,3.7,2.3,5,16.3
					v8.1c0,0,1.2-10.5,6.2-15.1c0,0-5,13.9-2.5,26.7c0,0,1.2-15.1,7.5-18.6c0,0-2.5,4.6,0,12.8c0,0,5-4.6,6.2-8.1
					c0,0,2.5,11.6-5,19.7c0,0,8.7-9.3,13.7-10.5c0,0-7.5,8.1-7.5,12.8c0,0,6.2-2.3,13.7-8.1c0,0-3.7,8.1-7.5,11.6c0,0,3.7,0,8.7-4.6
					c0,0-2.5,7-5,8.1c0,0,6.2-3.5,8.7-5.8c0,0-2.5,8.1-5,9.3l3.7-1.2c0,0-3.7,5.8-2.5,9.3c0,0,2.5,0,5-2.3c0,0,1.2,4.6-1.2,5.8
					c0,0-2.5,7,3.7,5.8h5c0,0,1.2,2.3-6.2,3.5c0,0,8.7,8.1,5,13.9c0,0,7.5,8.1,7.5,11.6c0,0-6.2,2.3-8.7,0c0,0,6.2,4.6,7.5,8.1
					C1286.6,131.5,1279.2,135,1275.4,133.8z"/>
			</defs>
			<clipPath id="SVGID_2_">
				<use xlink:href="#SVGID_1_"  style="overflow:visible;"/>
			</clipPath>
			<linearGradient id="SVGID_3_" gradientUnits="userSpaceOnUse" x1="1173.1465" y1="82.4293" x2="1463.6155" y2="386.4084">
				<stop  offset="0" style="stop-color:#F05623"/>
				<stop  offset="0.2783" style="stop-color:#ED5322"/>
				<stop  offset="0.5048" style="stop-color:#E44921"/>
				<stop  offset="0.713" style="stop-color:#D4381E"/>
				<stop  offset="0.9093" style="stop-color:#BF2019"/>
				<stop  offset="1" style="stop-color:#B21217"/>
			</linearGradient>
			<path class="st0" d="M1335.3,343.3c0,0,5.7-86.6-148.6-177l-77.1,29.7L1335.3,343.3z"/>
			<linearGradient id="SVGID_4_" gradientUnits="userSpaceOnUse" x1="1173.1465" y1="82.4293" x2="1463.6155" y2="386.4084">
				<stop  offset="0" style="stop-color:#F05623"/>
				<stop  offset="0.2783" style="stop-color:#ED5322"/>
				<stop  offset="0.5048" style="stop-color:#E44921"/>
				<stop  offset="0.713" style="stop-color:#D4381E"/>
				<stop  offset="0.9093" style="stop-color:#BF2019"/>
				<stop  offset="1" style="stop-color:#B21217"/>
			</linearGradient>
			<path class="st1" d="M1158.3,171.2c0,0,21.8-5.1,46.2,4.9c0,0,25.5,33.4,24.4,71.2C1227.8,285.1,1158.3,171.2,1158.3,171.2z"/>
			<linearGradient id="SVGID_5_" gradientUnits="userSpaceOnUse" x1="1173.1465" y1="82.4293" x2="1463.6155" y2="386.4084">
				<stop  offset="0" style="stop-color:#F05623"/>
				<stop  offset="0.2783" style="stop-color:#ED5322"/>
				<stop  offset="0.5048" style="stop-color:#E44921"/>
				<stop  offset="0.713" style="stop-color:#D4381E"/>
				<stop  offset="0.9093" style="stop-color:#BF2019"/>
				<stop  offset="1" style="stop-color:#B21217"/>
			</linearGradient>
			<path class="st2" d="M1168.8,169.5c0,0,11.6,0.6,12.9,1.6c11.6,9.4,70.8,58.7,83.7,94.3C1265.3,265.4,1191.2,178.4,1168.8,169.5
				L1168.8,169.5z"/>
			<linearGradient id="SVGID_6_" gradientUnits="userSpaceOnUse" x1="1173.1465" y1="82.4293" x2="1463.6155" y2="386.4084">
				<stop  offset="0" style="stop-color:#F05623"/>
				<stop  offset="0.2783" style="stop-color:#ED5322"/>
				<stop  offset="0.5048" style="stop-color:#E44921"/>
				<stop  offset="0.713" style="stop-color:#D4381E"/>
				<stop  offset="0.9093" style="stop-color:#BF2019"/>
				<stop  offset="1" style="stop-color:#B21217"/>
			</linearGradient>
			<path class="st3" d="M1176.7,166.3c0,0,145,135.9,124.1,208.1c0,0,87.4-28.7,81.5-81.1c0,0-40.3-54.3-138.4-100.4
				C1223.9,183.5,1201.6,174.4,1176.7,166.3z"/>
			<linearGradient id="SVGID_7_" gradientUnits="userSpaceOnUse" x1="1173.1465" y1="82.4293" x2="1463.6155" y2="386.4084">
				<stop  offset="0" style="stop-color:#F05623"/>
				<stop  offset="0.2783" style="stop-color:#ED5322"/>
				<stop  offset="0.5048" style="stop-color:#E44921"/>
				<stop  offset="0.713" style="stop-color:#D4381E"/>
				<stop  offset="0.9093" style="stop-color:#BF2019"/>
				<stop  offset="1" style="stop-color:#B21217"/>
			</linearGradient>
			<path class="st4" d="M1352.6,378.1c0,0-86.7,92.7-92,86.5c-5.3-6.2-19.7-236,149.8-239.7l28.9,119.8l-38.1,155.7L1352.6,378.1z"
				/>
			<linearGradient id="SVGID_8_" gradientUnits="userSpaceOnUse" x1="1173.1465" y1="82.4293" x2="1463.6155" y2="386.4084">
				<stop  offset="0" style="stop-color:#F05623"/>
				<stop  offset="0.2783" style="stop-color:#ED5322"/>
				<stop  offset="0.5048" style="stop-color:#E44921"/>
				<stop  offset="0.713" style="stop-color:#D4381E"/>
				<stop  offset="0.9093" style="stop-color:#BF2019"/>
				<stop  offset="1" style="stop-color:#B21217"/>
			</linearGradient>
			<path class="st5" d="M1349.3,265.8c0,0-28.7,23.5-23.4,110.1c0,0,67.9,4,67.9,2.4S1349.3,265.8,1349.3,265.8z"/>
			<linearGradient id="SVGID_9_" gradientUnits="userSpaceOnUse" x1="1173.1465" y1="82.4293" x2="1463.6155" y2="386.4084">
				<stop  offset="0" style="stop-color:#F05623"/>
				<stop  offset="0.2783" style="stop-color:#ED5322"/>
				<stop  offset="0.5048" style="stop-color:#E44921"/>
				<stop  offset="0.713" style="stop-color:#D4381E"/>
				<stop  offset="0.9093" style="stop-color:#BF2019"/>
				<stop  offset="1" style="stop-color:#B21217"/>
			</linearGradient>
			<path class="st6" d="M1333.3,294c0,0-17,12.2-9.7,91.1l7.3-8.2C1330.9,376.9,1321.8,359.9,1333.3,294z"/>
			<linearGradient id="SVGID_10_" gradientUnits="userSpaceOnUse" x1="1173.1465" y1="82.4293" x2="1463.6155" y2="386.4084">
				<stop  offset="0" style="stop-color:#F05623"/>
				<stop  offset="0.2783" style="stop-color:#ED5322"/>
				<stop  offset="0.5048" style="stop-color:#E44921"/>
				<stop  offset="0.713" style="stop-color:#D4381E"/>
				<stop  offset="0.9093" style="stop-color:#BF2019"/>
				<stop  offset="1" style="stop-color:#B21217"/>
			</linearGradient>
			<path class="st7" d="M1174.9,165.7c0,0,212.8,194.9,307.6,210.8L1406,161.6L1174.9,165.7z"/>
			<linearGradient id="SVGID_11_" gradientUnits="userSpaceOnUse" x1="1173.1465" y1="82.4293" x2="1463.6155" y2="386.4084">
				<stop  offset="0" style="stop-color:#F05623"/>
				<stop  offset="0.2783" style="stop-color:#ED5322"/>
				<stop  offset="0.5048" style="stop-color:#E44921"/>
				<stop  offset="0.713" style="stop-color:#D4381E"/>
				<stop  offset="0.9093" style="stop-color:#BF2019"/>
				<stop  offset="1" style="stop-color:#B21217"/>
			</linearGradient>
			<path class="st8" d="M1329.8,182.8c0,0-63.6,1.3-131.3-9.2c-63.1-9.8-129.9-29.8-151.9-70.6l185-11.9L1329.8,182.8z"/>
			<linearGradient id="SVGID_12_" gradientUnits="userSpaceOnUse" x1="1173.1465" y1="82.4293" x2="1463.6155" y2="386.4084">
				<stop  offset="0" style="stop-color:#F05623"/>
				<stop  offset="0.2783" style="stop-color:#ED5322"/>
				<stop  offset="0.5048" style="stop-color:#E44921"/>
				<stop  offset="0.713" style="stop-color:#D4381E"/>
				<stop  offset="0.9093" style="stop-color:#BF2019"/>
				<stop  offset="1" style="stop-color:#B21217"/>
			</linearGradient>
			<path class="st9" d="M1115.1,70.1c0,0,56.4,94.3,221.3,113.9l34.3-116.2L1115.1,70.1z"/>
			<linearGradient id="SVGID_13_" gradientUnits="userSpaceOnUse" x1="1173.1465" y1="82.4293" x2="1463.6155" y2="386.4084">
				<stop  offset="0" style="stop-color:#F05623"/>
				<stop  offset="0.2783" style="stop-color:#ED5322"/>
				<stop  offset="0.5048" style="stop-color:#E44921"/>
				<stop  offset="0.713" style="stop-color:#D4381E"/>
				<stop  offset="0.9093" style="stop-color:#BF2019"/>
				<stop  offset="1" style="stop-color:#B21217"/>
			</linearGradient>
			<path class="st10" d="M1164.1,46.5c0,0-12.9,3.1,115.2,79.5c0,0-107.1-54.4-126.1-75.1C1134.1,30.2,1164.1,46.5,1164.1,46.5z"/>
			<linearGradient id="SVGID_14_" gradientUnits="userSpaceOnUse" x1="1173.1465" y1="82.4293" x2="1463.6155" y2="386.4084">
				<stop  offset="0" style="stop-color:#F05623"/>
				<stop  offset="0.2783" style="stop-color:#ED5322"/>
				<stop  offset="0.5048" style="stop-color:#E44921"/>
				<stop  offset="0.713" style="stop-color:#D4381E"/>
				<stop  offset="0.9093" style="stop-color:#BF2019"/>
				<stop  offset="1" style="stop-color:#B21217"/>
			</linearGradient>
			<path class="st11" d="M1153.5,108.2c0,0,127.7-2.9,168.3,58l20.3,23.2C1342.1,189.5,1159.3,148.9,1153.5,108.2z"/>
			<linearGradient id="SVGID_15_" gradientUnits="userSpaceOnUse" x1="1173.1465" y1="82.4293" x2="1463.6155" y2="386.4084">
				<stop  offset="0" style="stop-color:#F05623"/>
				<stop  offset="0.2783" style="stop-color:#ED5322"/>
				<stop  offset="0.5048" style="stop-color:#E44921"/>
				<stop  offset="0.713" style="stop-color:#D4381E"/>
				<stop  offset="0.9093" style="stop-color:#BF2019"/>
				<stop  offset="1" style="stop-color:#B21217"/>
			</linearGradient>
			<path class="st12" d="M1161.5,74.2c0,0,125.8,22,166.1-2.1l-5-53.2l-184.2-7.5L1161.5,74.2z"/>
			<linearGradient id="SVGID_16_" gradientUnits="userSpaceOnUse" x1="1173.1465" y1="82.4293" x2="1463.6155" y2="386.4084">
				<stop  offset="0" style="stop-color:#F05623"/>
				<stop  offset="0.2783" style="stop-color:#ED5322"/>
				<stop  offset="0.5048" style="stop-color:#E44921"/>
				<stop  offset="0.713" style="stop-color:#D4381E"/>
				<stop  offset="0.9093" style="stop-color:#BF2019"/>
				<stop  offset="1" style="stop-color:#B21217"/>
			</linearGradient>
			<path class="st13" d="M1141.9,27c0,0,31.9,60.9,243.8,145.1c0,0,0-52.3-21.4-106c-0.6-1.4-1.2-2.9-1.8-4.3
				C1339.2,6.7,1141.9,27,1141.9,27z"/>
			<linearGradient id="SVGID_17_" gradientUnits="userSpaceOnUse" x1="1173.1465" y1="82.4293" x2="1463.6155" y2="386.4084">
				<stop  offset="0" style="stop-color:#F05623"/>
				<stop  offset="0.2783" style="stop-color:#ED5322"/>
				<stop  offset="0.5048" style="stop-color:#E44921"/>
				<stop  offset="0.713" style="stop-color:#D4381E"/>
				<stop  offset="0.9093" style="stop-color:#BF2019"/>
				<stop  offset="1" style="stop-color:#B21217"/>
			</linearGradient>
			<path class="st14" d="M1188.3-22.4c0,0-8.7,113.2,168.3,194.4l55.1-130.6L1188.3-22.4z"/>
			<linearGradient id="SVGID_18_" gradientUnits="userSpaceOnUse" x1="1173.1465" y1="82.4293" x2="1463.6155" y2="386.4084">
				<stop  offset="0" style="stop-color:#F05623"/>
				<stop  offset="0.2783" style="stop-color:#ED5322"/>
				<stop  offset="0.5048" style="stop-color:#E44921"/>
				<stop  offset="0.713" style="stop-color:#D4381E"/>
				<stop  offset="0.9093" style="stop-color:#BF2019"/>
				<stop  offset="1" style="stop-color:#B21217"/>
			</linearGradient>
			<path class="st15" d="M1237.6,189.5c0,0,45.9,58.7,50,119c0,0-4-18.5,51.6-59.5C1339.2,249,1322.3,232.8,1237.6,189.5z"/>
			<linearGradient id="SVGID_19_" gradientUnits="userSpaceOnUse" x1="1173.1465" y1="82.4293" x2="1463.6155" y2="386.4084">
				<stop  offset="0" style="stop-color:#F05623"/>
				<stop  offset="0.2783" style="stop-color:#ED5322"/>
				<stop  offset="0.5048" style="stop-color:#E44921"/>
				<stop  offset="0.713" style="stop-color:#D4381E"/>
				<stop  offset="0.9093" style="stop-color:#BF2019"/>
				<stop  offset="1" style="stop-color:#B21217"/>
			</linearGradient>
			<path class="st16" d="M1193.1,28c0,0,71.2,68.7,92.6,109.2C1285.7,137.2,1366.1-31.3,1193.1,28z"/>
			<linearGradient id="SVGID_20_" gradientUnits="userSpaceOnUse" x1="1173.1465" y1="82.4293" x2="1463.6155" y2="386.4084">
				<stop  offset="0" style="stop-color:#F05623"/>
				<stop  offset="0.2783" style="stop-color:#ED5322"/>
				<stop  offset="0.5048" style="stop-color:#E44921"/>
				<stop  offset="0.713" style="stop-color:#D4381E"/>
				<stop  offset="0.9093" style="stop-color:#BF2019"/>
				<stop  offset="1" style="stop-color:#B21217"/>
			</linearGradient>
			<path class="st17" d="M1269.9,206c0,0,60.7,32.6,78.9,49.9l-6.3,4.1C1342.4,260,1302.1,226.4,1269.9,206z"/>
			<linearGradient id="SVGID_21_" gradientUnits="userSpaceOnUse" x1="1173.1465" y1="82.4293" x2="1463.6155" y2="386.4084">
				<stop  offset="0" style="stop-color:#F05623"/>
				<stop  offset="0.2783" style="stop-color:#ED5322"/>
				<stop  offset="0.5048" style="stop-color:#E44921"/>
				<stop  offset="0.713" style="stop-color:#D4381E"/>
				<stop  offset="0.9093" style="stop-color:#BF2019"/>
				<stop  offset="1" style="stop-color:#B21217"/>
			</linearGradient>
			<path class="st18" d="M1183.5,138.2c0,0-59-15.5-88-27.1l-37.7,43.5C1057.7,154.7,1172.8,153.7,1183.5,138.2z"/>
			<linearGradient id="SVGID_22_" gradientUnits="userSpaceOnUse" x1="1173.1465" y1="82.4293" x2="1463.6155" y2="386.4084">
				<stop  offset="0" style="stop-color:#F05623"/>
				<stop  offset="0.2783" style="stop-color:#ED5322"/>
				<stop  offset="0.5048" style="stop-color:#E44921"/>
				<stop  offset="0.713" style="stop-color:#D4381E"/>
				<stop  offset="0.9093" style="stop-color:#BF2019"/>
				<stop  offset="1" style="stop-color:#B21217"/>
			</linearGradient>
			<path class="st19" d="M1151.8,100.2c0,0-17,29.2,112.2,68.7c0,0-89.1-12.9-115.6-48.3c0,0-12.9-12.2-13.6-21.8
				S1151.8,100.2,1151.8,100.2z"/>
		</g>
		<g>
			<defs>
				<path id="SVGID_23_" d="M1275.4,133.8c0,0,28.6,19.7,43.5,55.7c0,0,14.9,45.3,17.4,59.2c0,0,1.2,8.1,0,13.9
					c0,0-6.2,12.8-3.7,34.8c0,0,5,20.9,5,26.7c0,0,1.2,4.6-1.2,8.1c0,0,3.7-2.3,6.2,7c0,0,5,13.9,6.2,25.6c0,0,1.2,7-6.2,7
					c0,0-5,0-2.5-2.3c0,0,5-4.6-1.2-4.6c0,0-7.5-8.1-12.4-3.5c0,0,2.5,7-2.5,2.3c0,0-13.7-17.4-14.9-40.6c0,0-68.3-55.9-87.7-77.3
					c-0.2-0.2-0.3-0.4-0.5-0.6c-18.1-20.4-33.9-52.8-37-60.9c-0.1-0.2-0.2-0.4-0.2-0.6c-2.5-7-9.9-26.7,1.2-39.5c0,0,2.5-7-5-5.8
					c0,0-8.7,1.2-21.1-8.1c0,0-28.6,8.1-49.7,9.3c0,0-24.8,2.3-3.7-8.1c0,0,19.9-12.8,50.9-18.6c0,0,8.7-4.6,8.7-25.6
					c0,0,0-26.7,3.7-37.2c0,0,2.5-12.8,8.7-22.1c0,0,1.2-3.5,2.5-12.8c0,0,1.2,9.3,0,24.4c0,0,1.2-10.5,6.2-12.8c0,0-2.5,4.6,0,16.3
					c0,0,3.7,1.2,6.2-4.6c0,0,3.7-9.3,12.4-8.1c0,0-6.2,2.3-6.2,12.8c0,0,6.2,0,12.4-9.3c0,0,2.5-3.5,5-2.3c0,0-3.7,4.6-6.2,11.6
					c0,0-1.2,4.6,0,5.8c0,0,11.2,2.3,11.2-4.6c0,0,0-16.3,1.2-19.7c0,0,2.5,5.8,3.7,12.8c0,0,1.2-10.5,5-15.1c0,0,3.7,2.3,5,16.3
					v8.1c0,0,1.2-10.5,6.2-15.1c0,0-5,13.9-2.5,26.7c0,0,1.2-15.1,7.5-18.6c0,0-2.5,4.6,0,12.8c0,0,5-4.6,6.2-8.1
					c0,0,2.5,11.6-5,19.7c0,0,8.7-9.3,13.7-10.5c0,0-7.5,8.1-7.5,12.8c0,0,6.2-2.3,13.7-8.1c0,0-3.7,8.1-7.5,11.6c0,0,3.7,0,8.7-4.6
					c0,0-2.5,7-5,8.1c0,0,6.2-3.5,8.7-5.8c0,0-2.5,8.1-5,9.3l3.7-1.2c0,0-3.7,5.8-2.5,9.3c0,0,2.5,0,5-2.3c0,0,1.2,4.6-1.2,5.8
					c0,0-2.5,7,3.7,5.8h5c0,0,1.2,2.3-6.2,3.5c0,0,8.7,8.1,5,13.9c0,0,7.5,8.1,7.5,11.6c0,0-6.2,2.3-8.7,0c0,0,6.2,4.6,7.5,8.1
					C1286.6,131.5,1279.2,135,1275.4,133.8z"/>
			</defs>
			<linearGradient id="SVGID_24_" gradientUnits="userSpaceOnUse" x1="1096.8169" y1="193.6326" x2="1348.7782" y2="193.6326">
				<stop  offset="0" style="stop-color:#66C2D4"/>
				<stop  offset="1" style="stop-color:#131E3B"/>
			</linearGradient>
			<use xlink:href="#SVGID_23_"  style="overflow:visible;fill:url(#SVGID_24_);"/>
			<clipPath id="SVGID_25_">
				<use xlink:href="#SVGID_23_"  style="overflow:visible;"/>
			</clipPath>
			<linearGradient id="SVGID_26_" gradientUnits="userSpaceOnUse" x1="1296.5848" y1="292.3402" x2="1135.0405" y2="168.4157">
				<stop  offset="0" style="stop-color:#66C2D4"/>
				<stop  offset="1" style="stop-color:#131E3B"/>
			</linearGradient>
			<path class="st20" d="M1335.3,343.3c0,0,5.7-86.6-148.6-177l-77.1,29.7L1335.3,343.3z"/>
			
				<linearGradient id="SVGID_27_" gradientUnits="userSpaceOnUse" x1="1186.0031" y1="129.1903" x2="1244.4673" y2="190.3738" gradientTransform="matrix(0.9612 9.575634e-02 -6.131867e-02 0.993 46.4024 -67.7422)">
				<stop  offset="0" style="stop-color:#F05623"/>
				<stop  offset="0.2783" style="stop-color:#ED5322"/>
				<stop  offset="0.5048" style="stop-color:#E44921"/>
				<stop  offset="0.713" style="stop-color:#D4381E"/>
				<stop  offset="0.9093" style="stop-color:#BF2019"/>
				<stop  offset="1" style="stop-color:#B21217"/>
			</linearGradient>
			<path class="st21" d="M1158.3,171.2c0,0,21.8-5.1,46.2,4.9c0,0,25.5,33.4,24.4,71.2C1227.8,285.1,1158.3,171.2,1158.3,171.2z"/>
			<linearGradient id="SVGID_28_" gradientUnits="userSpaceOnUse" x1="1186.531" y1="179.1279" x2="1260.344" y2="256.3741">
				<stop  offset="0" style="stop-color:#F05623"/>
				<stop  offset="0.2783" style="stop-color:#ED5322"/>
				<stop  offset="0.5048" style="stop-color:#E44921"/>
				<stop  offset="0.713" style="stop-color:#D4381E"/>
				<stop  offset="0.9093" style="stop-color:#BF2019"/>
				<stop  offset="1" style="stop-color:#B21217"/>
			</linearGradient>
			<path class="st22" d="M1168.8,169.5c0,0,11.6,0.6,12.9,1.6c11.6,9.4,70.8,58.7,83.7,94.3C1265.3,265.4,1191.2,178.4,1168.8,169.5
				L1168.8,169.5z"/>
			
				<linearGradient id="SVGID_29_" gradientUnits="userSpaceOnUse" x1="1118.8639" y1="56.8318" x2="1208.6714" y2="97.9726" gradientTransform="matrix(0.9898 0.2306 -0.2286 0.9813 85.3013 -108.7582)">
				<stop  offset="0" style="stop-color:#66C2D4"/>
				<stop  offset="1" style="stop-color:#131E3B"/>
			</linearGradient>
			<path class="st23" d="M1176.7,166.3c0,0,145,135.9,124.1,208.1c0,0,87.4-28.7,81.5-81.1c0,0-40.3-54.3-138.4-100.4
				C1223.9,183.5,1201.6,174.4,1176.7,166.3z"/>
			<linearGradient id="SVGID_30_" gradientUnits="userSpaceOnUse" x1="1333.7373" y1="373.5496" x2="1297.5927" y2="379.4507">
				<stop  offset="0" style="stop-color:#66C2D4"/>
				<stop  offset="1" style="stop-color:#131E3B"/>
			</linearGradient>
			<path class="st24" d="M1352.6,378.1c0,0-86.7,92.7-92,86.5c-5.3-6.2-19.7-236,149.8-239.7l28.9,119.8l-38.1,155.7L1352.6,378.1z"
				/>
			<linearGradient id="SVGID_31_" gradientUnits="userSpaceOnUse" x1="1357.0284" y1="394.2889" x2="1364.4049" y2="300.608">
				<stop  offset="0" style="stop-color:#66C2D4"/>
				<stop  offset="1" style="stop-color:#131E3B"/>
			</linearGradient>
			<path class="st25" d="M1349.3,265.8c0,0-28.7,23.5-23.4,110.1c0,0,67.9,4,67.9,2.4S1349.3,265.8,1349.3,265.8z"/>
			<linearGradient id="SVGID_32_" gradientUnits="userSpaceOnUse" x1="1313.7809" y1="324.1533" x2="1345.8899" y2="357.7557">
				<stop  offset="0" style="stop-color:#F05623"/>
				<stop  offset="0.2783" style="stop-color:#ED5322"/>
				<stop  offset="0.5048" style="stop-color:#E44921"/>
				<stop  offset="0.713" style="stop-color:#D4381E"/>
				<stop  offset="0.9093" style="stop-color:#BF2019"/>
				<stop  offset="1" style="stop-color:#B21217"/>
			</linearGradient>
			<path class="st26" d="M1333.3,294c0,0-17,12.2-9.7,91.1l7.3-8.2C1330.9,376.9,1321.8,359.9,1333.3,294z"/>
			<linearGradient id="SVGID_33_" gradientUnits="userSpaceOnUse" x1="1216.0443" y1="166.9267" x2="1348.0828" y2="227.4137">
				<stop  offset="0" style="stop-color:#66C2D4"/>
				<stop  offset="1" style="stop-color:#131E3B"/>
			</linearGradient>
			<path class="st27" d="M1174.9,165.7c0,0,212.8,194.9,307.6,210.8L1406,161.6L1174.9,165.7z"/>
			<linearGradient id="SVGID_34_" gradientUnits="userSpaceOnUse" x1="1257.3438" y1="160.18" x2="1116.4535" y2="96.7425">
				<stop  offset="0" style="stop-color:#66C2D4"/>
				<stop  offset="1" style="stop-color:#131E3B"/>
			</linearGradient>
			<path class="st28" d="M1329.8,182.8c0,0-63.6,1.3-131.3-9.2c-63.1-9.8-129.9-29.8-151.9-70.6l185-11.9L1329.8,182.8z"/>
			<linearGradient id="SVGID_35_" gradientUnits="userSpaceOnUse" x1="1247.1191" y1="88.2133" x2="1264.5508" y2="167.7925">
				<stop  offset="0" style="stop-color:#66C2D4"/>
				<stop  offset="1" style="stop-color:#131E3B"/>
			</linearGradient>
			<path class="st29" d="M1115.1,70.1c0,0,56.4,94.3,221.3,113.9l34.3-116.2L1115.1,70.1z"/>
			<linearGradient id="SVGID_36_" gradientUnits="userSpaceOnUse" x1="1174.3345" y1="44.642" x2="1257.3267" y2="131.4943">
				<stop  offset="0" style="stop-color:#F05623"/>
				<stop  offset="0.2783" style="stop-color:#ED5322"/>
				<stop  offset="0.5048" style="stop-color:#E44921"/>
				<stop  offset="0.713" style="stop-color:#D4381E"/>
				<stop  offset="0.9093" style="stop-color:#BF2019"/>
				<stop  offset="1" style="stop-color:#B21217"/>
			</linearGradient>
			<path class="st30" d="M1164.1,46.5c0,0-12.9,3.1,115.2,79.5c0,0-107.1-54.4-126.1-75.1C1134.1,30.2,1164.1,46.5,1164.1,46.5z"/>
			<linearGradient id="SVGID_37_" gradientUnits="userSpaceOnUse" x1="1176.2124" y1="109.4872" x2="1250.0063" y2="143.2923">
				<stop  offset="0" style="stop-color:#66C2D4"/>
				<stop  offset="1" style="stop-color:#131E3B"/>
			</linearGradient>
			<path class="st31" d="M1153.5,108.2c0,0,127.7-2.9,168.3,58l20.3,23.2C1342.1,189.5,1159.3,148.9,1153.5,108.2z"/>
			<linearGradient id="SVGID_38_" gradientUnits="userSpaceOnUse" x1="1187.192" y1="16.4201" x2="1254.3177" y2="53.3024">
				<stop  offset="0" style="stop-color:#66C2D4"/>
				<stop  offset="1" style="stop-color:#131E3B"/>
			</linearGradient>
			<path class="st32" d="M1161.5,74.2c0,0,125.8,22,166.1-2.1l-5-53.2l-184.2-7.5L1161.5,74.2z"/>
			<linearGradient id="SVGID_39_" gradientUnits="userSpaceOnUse" x1="1141.8632" y1="97.6941" x2="1385.6348" y2="97.6941">
				<stop  offset="0" style="stop-color:#66C2D4"/>
				<stop  offset="1" style="stop-color:#131E3B"/>
			</linearGradient>
			<path class="st33" d="M1141.9,27c0,0,31.9,60.9,243.8,145.1c0,0,0-52.3-21.4-106c-0.6-1.4-1.2-2.9-1.8-4.3
				C1339.2,6.7,1141.9,27,1141.9,27z"/>
			<linearGradient id="SVGID_40_" gradientUnits="userSpaceOnUse" x1="1352.1202" y1="95.8765" x2="1260.7058" y2="-5.695">
				<stop  offset="0" style="stop-color:#66C2D4"/>
				<stop  offset="1" style="stop-color:#131E3B"/>
			</linearGradient>
			<path class="st34" d="M1188.3-22.4c0,0-8.7,113.2,168.3,194.4l55.1-130.6L1188.3-22.4z"/>
			<linearGradient id="SVGID_41_" gradientUnits="userSpaceOnUse" x1="1277.8931" y1="201.7783" x2="1301.2292" y2="252.3399">
				<stop  offset="0" style="stop-color:#66C2D4"/>
				<stop  offset="1" style="stop-color:#131E3B"/>
			</linearGradient>
			<path class="st35" d="M1237.6,189.5c0,0,45.9,58.7,50,119c0,0-4-18.5,51.6-59.5C1339.2,249,1322.3,232.8,1237.6,189.5z"/>
			<linearGradient id="SVGID_42_" gradientUnits="userSpaceOnUse" x1="1247.5245" y1="35.9362" x2="1272.4911" y2="90.0306">
				<stop  offset="0" style="stop-color:#66C2D4"/>
				<stop  offset="1" style="stop-color:#131E3B"/>
			</linearGradient>
			<path class="st36" d="M1193.1,28c0,0,71.2,68.7,92.6,109.2C1285.7,137.2,1366.1-31.3,1193.1,28z"/>
			<linearGradient id="SVGID_43_" gradientUnits="userSpaceOnUse" x1="1286.8542" y1="207.4617" x2="1335.9861" y2="258.8788">
				<stop  offset="0" style="stop-color:#F05623"/>
				<stop  offset="0.2783" style="stop-color:#ED5322"/>
				<stop  offset="0.5048" style="stop-color:#E44921"/>
				<stop  offset="0.713" style="stop-color:#D4381E"/>
				<stop  offset="0.9093" style="stop-color:#BF2019"/>
				<stop  offset="1" style="stop-color:#B21217"/>
			</linearGradient>
			<path class="st37" d="M1269.9,206c0,0,60.7,32.6,78.9,49.9l-6.3,4.1C1342.4,260,1302.1,226.4,1269.9,206z"/>
			<linearGradient id="SVGID_44_" gradientUnits="userSpaceOnUse" x1="1108.4473" y1="120.1477" x2="1119.8035" y2="144.7529">
				<stop  offset="0" style="stop-color:#66C2D4"/>
				<stop  offset="1" style="stop-color:#131E3B"/>
			</linearGradient>
			<path class="st38" d="M1183.5,138.2c0,0-59-15.5-88-27.1l-37.7,43.5C1057.7,154.7,1172.8,153.7,1183.5,138.2z"/>
			<linearGradient id="SVGID_45_" gradientUnits="userSpaceOnUse" x1="1161.7463" y1="98.4666" x2="1238.5336" y2="178.8254">
				<stop  offset="0" style="stop-color:#F05623"/>
				<stop  offset="0.2783" style="stop-color:#ED5322"/>
				<stop  offset="0.5048" style="stop-color:#E44921"/>
				<stop  offset="0.713" style="stop-color:#D4381E"/>
				<stop  offset="0.9093" style="stop-color:#BF2019"/>
				<stop  offset="1" style="stop-color:#B21217"/>
			</linearGradient>
			<path class="st39" d="M1151.8,100.2c0,0-17,29.2,112.2,68.7c0,0-89.1-12.9-115.6-48.3c0,0-12.9-12.2-13.6-21.8
				S1151.8,100.2,1151.8,100.2z"/>
		</g>
		<g>
			<defs>
				<path id="SVGID_46_" d="M1275.4,133.8c0,0,28.6,19.7,43.5,55.7c0,0,14.9,45.3,17.4,59.2c0,0,1.2,8.1,0,13.9
					c0,0-6.2,12.8-3.7,34.8c0,0,5,20.9,5,26.7c0,0,1.2,4.6-1.2,8.1c0,0,3.7-2.3,6.2,7c0,0,5,13.9,6.2,25.6c0,0,1.2,7-6.2,7
					c0,0-5,0-2.5-2.3c0,0,5-4.6-1.2-4.6c0,0-7.5-8.1-12.4-3.5c0,0,2.5,7-2.5,2.3c0,0-13.7-17.4-14.9-40.6c0,0-68.3-55.9-87.7-77.3
					c-0.2-0.2-0.3-0.4-0.5-0.6c-18.1-20.4-33.9-52.8-37-60.9c-0.1-0.2-0.2-0.4-0.2-0.6c-2.5-7-9.9-26.7,1.2-39.5c0,0,2.5-7-5-5.8
					c0,0-8.7,1.2-21.1-8.1c0,0-28.6,8.1-49.7,9.3c0,0-24.8,2.3-3.7-8.1c0,0,19.9-12.8,50.9-18.6c0,0,8.7-4.6,8.7-25.6
					c0,0,0-26.7,3.7-37.2c0,0,2.5-12.8,8.7-22.1c0,0,1.2-3.5,2.5-12.8c0,0,1.2,9.3,0,24.4c0,0,1.2-10.5,6.2-12.8c0,0-2.5,4.6,0,16.3
					c0,0,3.7,1.2,6.2-4.6c0,0,3.7-9.3,12.4-8.1c0,0-6.2,2.3-6.2,12.8c0,0,6.2,0,12.4-9.3c0,0,2.5-3.5,5-2.3c0,0-3.7,4.6-6.2,11.6
					c0,0-1.2,4.6,0,5.8c0,0,11.2,2.3,11.2-4.6c0,0,0-16.3,1.2-19.7c0,0,2.5,5.8,3.7,12.8c0,0,1.2-10.5,5-15.1c0,0,3.7,2.3,5,16.3
					v8.1c0,0,1.2-10.5,6.2-15.1c0,0-5,13.9-2.5,26.7c0,0,1.2-15.1,7.5-18.6c0,0-2.5,4.6,0,12.8c0,0,5-4.6,6.2-8.1
					c0,0,2.5,11.6-5,19.7c0,0,8.7-9.3,13.7-10.5c0,0-7.5,8.1-7.5,12.8c0,0,6.2-2.3,13.7-8.1c0,0-3.7,8.1-7.5,11.6c0,0,3.7,0,8.7-4.6
					c0,0-2.5,7-5,8.1c0,0,6.2-3.5,8.7-5.8c0,0-2.5,8.1-5,9.3l3.7-1.2c0,0-3.7,5.8-2.5,9.3c0,0,2.5,0,5-2.3c0,0,1.2,4.6-1.2,5.8
					c0,0-2.5,7,3.7,5.8h5c0,0,1.2,2.3-6.2,3.5c0,0,8.7,8.1,5,13.9c0,0,7.5,8.1,7.5,11.6c0,0-6.2,2.3-8.7,0c0,0,6.2,4.6,7.5,8.1
					C1286.6,131.5,1279.2,135,1275.4,133.8z"/>
			</defs>
			<clipPath id="SVGID_47_">
				<use xlink:href="#SVGID_46_"  style="overflow:visible;"/>
			</clipPath>
		</g>
	</g>
</g>
<g>
	<path class="st40" d="M1008.8,331.8c0-32.9-16-65.1-41.9-84c-12.3-8.7-23.6-13-34.3-13c-30.3,0-53.8,18.9-64.5,51.7
		c-5,15.2-7.5,30.9-7.5,46.7c0,33,14.1,64.4,36.8,82c11,8.6,22.9,13,35.2,13c44,0,61.9-27.2,69.1-50.1
		C1006.4,363.4,1008.8,347.8,1008.8,331.8z M947.6,349.2c0,0-11.5,10.1-23-1.4c0,0-12.9-15.8-0.7-34.5c0,0,7.2-7.9,15.1-5
		c0,0,10.1,2.9,13.7,15.1C952.6,323.3,957.7,338.4,947.6,349.2z"/>
	<path class="st40" d="M562.4,639.5c-1.1-1.2-2.4-2.1-3.9-2.8c-1.5-0.7-3.3-1-5.3-1c-4.2,0-7.5,1.2-9.8,3.6c-2.4,2.4-3.9,5.7-4.5,10
		h26.7c0-2-0.3-3.8-0.8-5.5C564.3,642.2,563.5,640.7,562.4,639.5z"/>
	<path class="st40" d="M235.9,636.1c-2.5,0-4.6,0.4-6.4,1.3c-1.8,0.8-3.3,2.1-4.5,3.6c-1.2,1.6-2.1,3.5-2.7,5.8
		c-0.6,2.3-0.9,4.9-0.9,7.8c0,2.9,0.3,5.5,0.9,7.8s1.5,4.2,2.7,5.8s2.7,2.8,4.5,3.6c1.8,0.8,3.9,1.3,6.4,1.3c4.8,0,8.5-1.6,10.9-4.9
		c2.4-3.2,3.6-7.8,3.6-13.6c0-5.8-1.2-10.4-3.6-13.7C244.4,637.8,240.7,636.1,235.9,636.1z"/>
	<path class="st40" d="M384,635.5c-3.5,0-6.1,0.9-7.9,2.7c-1.8,1.8-2.7,4.2-2.7,7.2c0,1.5,0.2,2.8,0.7,4c0.5,1.2,1.2,2.3,2.1,3.1
		c0.9,0.9,2,1.6,3.3,2c1.3,0.5,2.8,0.7,4.6,0.7c1.7,0,3.3-0.2,4.6-0.7c1.3-0.5,2.5-1.2,3.4-2c0.9-0.9,1.6-1.9,2-3.1
		c0.5-1.2,0.7-2.5,0.7-4c0-3-0.9-5.4-2.7-7.2C390.2,636.4,387.5,635.5,384,635.5z"/>
	<path class="st40" d="M1063.5,637.3c-1.9-0.9-4-1.3-6.3-1.3c-4.6,0-8.1,1.6-10.6,4.9c-2.5,3.3-3.7,7.9-3.7,14
		c0,3.2,0.3,5.9,0.8,8.2c0.5,2.3,1.4,4.2,2.4,5.6s2.4,2.5,3.9,3.2c1.6,0.7,3.3,1,5.3,1c2.8,0,5.3-0.6,7.4-1.9
		c2.1-1.3,4.1-3.1,5.8-5.5v-23.8C1067.1,639.6,1065.4,638.1,1063.5,637.3z"/>
	<path class="st40" d="M445.8,639.5c-1.1-1.2-2.4-2.1-3.9-2.8c-1.5-0.7-3.3-1-5.3-1c-4.2,0-7.5,1.2-9.8,3.6c-2.4,2.4-3.9,5.7-4.5,10
		h26.7c0-2-0.3-3.8-0.8-5.5C447.7,642.2,446.9,640.7,445.8,639.5z"/>
	<polygon class="st40" points="125.7,224.7 204.4,224.7 164.4,103.9 	"/>
	<path class="st40" d="M875.3,651.6c-1.7,2.6-2.6,5.4-2.6,8.4c0,2.1,0.4,4,1.2,5.6c0.8,1.6,1.8,3,3.1,4c1.3,1.1,2.7,1.9,4.3,2.5
		s3.3,0.8,4.9,0.8c3.6,0,6.9-0.7,9.7-2s5.4-3.1,7.6-5.3L883.1,645C879.6,646.9,877,649.1,875.3,651.6z"/>
	<path class="st40" d="M826.3,639.5c-1.1-1.2-2.4-2.1-3.9-2.8c-1.5-0.7-3.3-1-5.3-1c-4.2,0-7.5,1.2-9.8,3.6c-2.4,2.4-3.9,5.7-4.5,10
		h26.7c0-2-0.3-3.8-0.8-5.5S827.4,640.7,826.3,639.5z"/>
	<path class="st40" d="M695.1,660c-1.7,0.8-3,1.8-3.8,2.9c-0.8,1.1-1.2,2.3-1.2,3.7c0,1.3,0.2,2.4,0.6,3.4s1,1.7,1.7,2.3
		s1.6,1,2.5,1.3c1,0.3,2,0.4,3.2,0.4c1.5,0,2.9-0.2,4.2-0.5c1.3-0.3,2.4-0.7,3.6-1.3c1.1-0.6,2.2-1.3,3.2-2.1c1-0.8,2-1.7,3-2.8
		v-10.1c-4,0-7.4,0.3-10.1,0.8C699.1,658.5,696.9,659.2,695.1,660z"/>
	<path class="st40" d="M1316.7,639.5c-1.1-1.2-2.4-2.1-3.9-2.8c-1.5-0.7-3.3-1-5.3-1c-4.2,0-7.5,1.2-9.8,3.6
		c-2.4,2.4-3.9,5.7-4.5,10h26.7c0-2-0.3-3.8-0.8-5.5S1317.8,640.7,1316.7,639.5z"/>
	<path class="st40" d="M329,660c-1.7,0.8-3,1.8-3.8,2.9c-0.8,1.1-1.2,2.3-1.2,3.7c0,1.3,0.2,2.4,0.6,3.4c0.4,0.9,1,1.7,1.7,2.3
		c0.7,0.6,1.6,1,2.5,1.3c1,0.3,2,0.4,3.2,0.4c1.5,0,2.9-0.2,4.2-0.5c1.3-0.3,2.4-0.7,3.6-1.3c1.1-0.6,2.2-1.3,3.2-2.1
		c1-0.8,2-1.7,3-2.8v-10.1c-4,0-7.4,0.3-10.1,0.8C333,658.5,330.7,659.2,329,660z"/>
	<path class="st40" d="M370.4,682.8c0,1.1,0.3,2.1,0.8,3.1c0.6,1,1.4,1.8,2.6,2.5c1.2,0.7,2.6,1.2,4.4,1.7c1.8,0.4,3.8,0.6,6.2,0.6
		c2.3,0,4.4-0.2,6.3-0.6c1.8-0.4,3.4-1,4.7-1.8c1.3-0.8,2.3-1.7,2.9-2.8c0.7-1.1,1-2.3,1-3.6c0-1.3-0.3-2.3-1-3
		c-0.7-0.8-1.6-1.3-2.8-1.8s-2.5-0.7-4-0.9c-1.5-0.2-3.1-0.3-4.8-0.3c-1.7,0-3.4,0-5.1,0c-1.7,0-3.4-0.2-5-0.7
		c-1.8,0.9-3.3,1.9-4.5,3.2C371,679.6,370.4,681.1,370.4,682.8z"/>
	<path class="st40" d="M121.7,639.5c-1.1-1.2-2.4-2.1-3.9-2.8c-1.5-0.7-3.3-1-5.3-1c-4.2,0-7.5,1.2-9.8,3.6c-2.4,2.4-3.9,5.7-4.5,10
		h26.7c0-2-0.3-3.8-0.8-5.5C123.6,642.2,122.7,640.7,121.7,639.5z"/>
	<path class="st41" d="M69,659c0,0.7,0,1.5,0,2.3c0,0.8,0.1,1.6,0.2,2.4L29,611.4c-0.5-0.6-1-1.1-1.4-1.3c-0.4-0.2-1-0.3-1.9-0.3
		h-4.8v69.5h8.2v-49.5c0-0.6,0-1.4,0-2.1c0-0.8-0.1-1.6-0.1-2.4l40.2,52.3c0.5,0.6,1,1.1,1.5,1.3c0.5,0.3,1.1,0.4,1.9,0.4h4.8v-69.5
		H69V659z"/>
	<path class="st41" d="M126.9,635.1c-1.8-1.9-4-3.3-6.4-4.3c-2.5-1-5.2-1.5-8.1-1.5c-3.6,0-6.8,0.6-9.6,1.9c-2.8,1.2-5.3,3-7.2,5.1
		c-2,2.2-3.5,4.8-4.5,7.7c-1.1,3-1.6,6.2-1.6,9.6c0,4.2,0.6,8,1.7,11.2c1.2,3.3,2.8,6,4.9,8.2c2.1,2.2,4.6,3.9,7.4,5
		c2.9,1.1,6,1.7,9.4,1.7c1.8,0,3.6-0.2,5.4-0.5c1.8-0.3,3.6-0.8,5.3-1.4c1.7-0.6,3.3-1.4,4.8-2.4c1.5-1,2.8-2.1,3.8-3.4l-2.4-3.2
		c-0.4-0.5-0.9-0.8-1.6-0.8c-0.5,0-1.2,0.3-2,0.8c-0.8,0.5-1.7,1-2.8,1.6c-1.1,0.6-2.5,1.1-4,1.6c-1.6,0.5-3.4,0.8-5.6,0.8
		c-2.3,0-4.4-0.4-6.3-1.1c-1.9-0.8-3.5-1.9-4.8-3.4s-2.4-3.5-3.2-5.7c-0.8-2.3-1.2-5-1.3-8.1h32.7c0.8,0,1.4-0.2,1.6-0.7
		c0.3-0.5,0.4-1.4,0.4-2.7c0-3.5-0.5-6.6-1.5-9.3C130.1,639.3,128.7,637,126.9,635.1z M98.2,649.3c0.6-4.3,2.1-7.6,4.5-10
		c2.4-2.4,5.7-3.6,9.8-3.6c2,0,3.7,0.3,5.3,1c1.5,0.7,2.8,1.6,3.9,2.8c1.1,1.2,1.9,2.7,2.4,4.3c0.5,1.7,0.8,3.5,0.8,5.5H98.2z"/>
	<path class="st41" d="M166.7,670.6c-0.3,0-0.6,0.1-0.9,0.4s-0.8,0.5-1.2,0.8s-1.1,0.6-1.7,0.8c-0.7,0.2-1.4,0.4-2.4,0.4
		c-1.6,0-2.9-0.5-3.9-1.5c-1-1-1.5-2.5-1.5-4.6v-29.5h14.1v-6.3h-14.1v-16.9h-4.4c-0.5,0-1,0.2-1.4,0.5c-0.4,0.3-0.6,0.7-0.6,1.2
		l-2,15.2l-8,1v3.4c0,0.6,0.2,1.1,0.5,1.4c0.4,0.3,0.8,0.5,1.3,0.5h5.9v30.1c0,4.1,1,7.2,3.1,9.4c2.1,2.2,5.1,3.2,8.9,3.2
		c2.2,0,4.4-0.4,6.5-1.2c2.1-0.8,3.9-1.9,5.4-3.3l-2.5-4.1C167.6,670.9,167.2,670.6,166.7,670.6z"/>
	<path class="st41" d="M202.9,670.6c-0.3,0-0.6,0.1-0.9,0.4s-0.8,0.5-1.2,0.8s-1.1,0.6-1.7,0.8c-0.7,0.2-1.4,0.4-2.4,0.4
		c-1.6,0-2.9-0.5-3.9-1.5c-1-1-1.5-2.5-1.5-4.6v-29.5h14.1v-6.3h-14.1v-16.9h-4.4c-0.5,0-1,0.2-1.4,0.5c-0.4,0.3-0.6,0.7-0.6,1.2
		l-2,15.2l-8,1v3.4c0,0.6,0.2,1.1,0.5,1.4c0.4,0.3,0.8,0.5,1.3,0.5h5.9v30.1c0,4.1,1,7.2,3.1,9.4c2.1,2.2,5.1,3.2,8.9,3.2
		c2.2,0,4.4-0.4,6.5-1.2c2.1-0.8,3.9-1.9,5.4-3.3l-2.5-4.1C203.7,670.9,203.3,670.6,202.9,670.6z"/>
	<path class="st41" d="M253,636.2c-2-2.2-4.5-3.9-7.4-5.1c-2.9-1.2-6.1-1.8-9.7-1.8s-6.8,0.6-9.7,1.8c-2.9,1.2-5.4,2.9-7.4,5.1
		c-2,2.2-3.6,4.9-4.7,8c-1.1,3.1-1.6,6.6-1.6,10.4c0,3.9,0.5,7.4,1.6,10.5c1.1,3.1,2.7,5.8,4.7,8c2,2.2,4.5,3.9,7.4,5.1
		c2.9,1.2,6.1,1.8,9.7,1.8s6.8-0.6,9.7-1.8c2.9-1.2,5.3-2.9,7.4-5.1s3.6-4.8,4.7-8c1.1-3.1,1.6-6.6,1.6-10.5c0-3.8-0.5-7.3-1.6-10.4
		C256.6,641.1,255,638.4,253,636.2z M246.8,668.3c-2.4,3.2-6,4.9-10.9,4.9c-2.5,0-4.6-0.4-6.4-1.3c-1.8-0.8-3.3-2-4.5-3.6
		s-2.1-3.5-2.7-5.8s-0.9-4.9-0.9-7.8c0-2.9,0.3-5.5,0.9-7.8c0.6-2.3,1.5-4.3,2.7-5.8c1.2-1.6,2.7-2.8,4.5-3.6
		c1.8-0.8,3.9-1.3,6.4-1.3c4.8,0,8.5,1.6,10.9,4.9c2.4,3.3,3.6,7.8,3.6,13.7C250.3,660.5,249.2,665.1,246.8,668.3z"/>
	<path class="st41" d="M302.1,630.6c-0.5,0.3-0.8,0.8-1,1.3l-12.8,30.9c-0.3,0.7-0.5,1.5-0.8,2.2c-0.2,0.7-0.5,1.4-0.7,2.2
		c-0.2-0.7-0.3-1.5-0.6-2.2c-0.2-0.7-0.5-1.4-0.8-2.1l-13.1-30.9c-0.2-0.5-0.5-0.9-0.9-1.2c-0.4-0.4-1-0.6-1.7-0.6h-7.5l20.3,46.3
		l-9,19.5h6.4c0.9,0,1.6-0.2,2-0.6c0.4-0.4,0.8-0.9,1.1-1.6l27.4-63.6h-6.9C303,630.1,302.5,630.3,302.1,630.6z"/>
	<path class="st41" d="M350,634.4c-1.5-1.6-3.2-2.9-5.4-3.8s-4.6-1.4-7.3-1.4c-3.8,0-7.3,0.6-10.4,1.9c-3.1,1.3-6.1,3.2-8.8,5.9
		l1.6,2.8c0.3,0.5,0.6,0.8,1,1.1c0.4,0.3,0.9,0.5,1.5,0.5c0.7,0,1.5-0.3,2.3-0.8c0.8-0.5,1.7-1.1,2.7-1.8c1.1-0.7,2.3-1.3,3.7-1.8
		c1.4-0.5,3.2-0.8,5.3-0.8c3.2,0,5.6,1,7.2,3c1.6,2,2.4,4.9,2.4,8.7v3.9c-5.6,0-10.3,0.4-14.1,1.3c-3.8,0.9-7,2-9.3,3.4
		c-2.4,1.4-4.1,3-5.2,4.8c-1.1,1.8-1.6,3.7-1.6,5.6c0,2.2,0.4,4.2,1.1,5.8c0.7,1.6,1.7,3,2.9,4.1c1.2,1.1,2.7,1.9,4.3,2.4
		c1.7,0.5,3.5,0.8,5.4,0.8c1.9,0,3.6-0.2,5.1-0.5c1.5-0.3,3-0.8,4.3-1.4c1.4-0.6,2.6-1.4,3.9-2.3c1.2-0.9,2.5-2,3.8-3.1l1,4.6
		c0.2,0.8,0.5,1.4,1,1.6c0.5,0.3,1.2,0.4,2,0.4h3.8v-31.4c0-2.7-0.4-5.3-1.1-7.6C352.5,638,351.4,636,350,634.4z M345.9,667.4
		c-1,1-2,2-3,2.8c-1,0.8-2.1,1.5-3.2,2.1c-1.1,0.6-2.3,1-3.6,1.3c-1.3,0.3-2.7,0.5-4.2,0.5c-1.1,0-2.2-0.1-3.2-0.4
		c-1-0.3-1.8-0.7-2.5-1.3c-0.7-0.6-1.3-1.4-1.7-2.3c-0.4-0.9-0.6-2.1-0.6-3.4c0-1.4,0.4-2.6,1.2-3.7c0.8-1.1,2.1-2.1,3.8-2.9
		s4-1.5,6.8-2c2.8-0.5,6.2-0.8,10.1-0.8V667.4z"/>
	<path class="st41" d="M390,630c-1.9-0.5-3.9-0.7-6-0.7c-2.7,0-5.2,0.4-7.5,1.1c-2.3,0.7-4.2,1.8-5.9,3.2c-1.6,1.4-2.9,3-3.9,5
		c-0.9,2-1.4,4.1-1.4,6.5c0,3,0.7,5.6,2.1,7.9c1.4,2.2,3.3,4,5.7,5.4c-1,0.5-1.9,1.1-2.7,1.8c-0.8,0.7-1.4,1.4-2,2.1
		c-0.5,0.7-0.9,1.5-1.2,2.3c-0.3,0.8-0.4,1.5-0.4,2.2c0,1.8,0.4,3.3,1.2,4.3s1.9,1.9,3.3,2.6c-2.7,1-4.8,2.4-6.3,4.1
		c-1.5,1.7-2.3,3.8-2.3,6.2c0,1.7,0.4,3.4,1.3,4.9c0.9,1.6,2.2,3,4,4.2c1.8,1.2,4,2.2,6.7,2.9c2.7,0.7,5.8,1.1,9.4,1.1
		c3.6,0,6.8-0.5,9.6-1.4c2.8-0.9,5.3-2.2,7.2-3.7c2-1.6,3.5-3.3,4.5-5.3c1-2,1.6-4.1,1.6-6.2c0-2.3-0.5-4.2-1.4-5.6
		c-0.9-1.4-2.2-2.6-3.7-3.4c-1.6-0.8-3.3-1.4-5.3-1.8c-2-0.4-4-0.5-6-0.5c-2.1,0-4.1,0-6,0c-2,0-3.7-0.1-5.3-0.4
		c-1.6-0.3-2.8-0.7-3.7-1.3s-1.4-1.5-1.4-2.7c0-0.7,0.3-1.5,0.8-2.3c0.5-0.8,1.3-1.5,2.4-2.2c2,0.5,4.2,0.8,6.5,0.8
		c2.7,0,5.1-0.4,7.4-1.1c2.2-0.7,4.2-1.8,5.8-3.2c1.6-1.4,2.9-3.1,3.8-5c0.9-2,1.4-4.1,1.4-6.5c0-2.6-0.6-4.9-1.6-7l5.6-0.8
		c1.4-0.3,2-1,2-2v-3.2h-13.3C393.6,631.2,391.9,630.5,390,630z M376.6,675.1c1.6,0.4,3.2,0.7,5,0.7c1.7,0,3.5,0,5.1,0
		c1.7,0,3.3,0.1,4.8,0.3c1.5,0.2,2.9,0.5,4,0.9s2.1,1,2.8,1.8c0.7,0.8,1,1.8,1,3c0,1.3-0.3,2.5-1,3.6c-0.7,1.1-1.7,2-2.9,2.8
		c-1.3,0.8-2.8,1.4-4.7,1.8c-1.8,0.4-3.9,0.6-6.3,0.6c-2.4,0-4.5-0.2-6.2-0.6c-1.8-0.4-3.2-1-4.4-1.7c-1.2-0.7-2-1.5-2.6-2.5
		c-0.6-1-0.8-2-0.8-3.1c0-1.7,0.6-3.3,1.7-4.5C373.3,677,374.8,676,376.6,675.1z M394.1,649.4c-0.5,1.2-1.1,2.3-2,3.1
		c-0.9,0.9-2,1.6-3.4,2c-1.3,0.5-2.9,0.7-4.6,0.7c-1.7,0-3.2-0.2-4.6-0.7c-1.3-0.5-2.4-1.2-3.3-2c-0.9-0.9-1.6-1.9-2.1-3.1
		c-0.5-1.2-0.7-2.5-0.7-4c0-3,0.9-5.4,2.7-7.2c1.8-1.8,4.5-2.7,7.9-2.7c3.5,0,6.1,0.9,8,2.7c1.8,1.8,2.7,4.2,2.7,7.2
		C394.7,646.8,394.5,648.1,394.1,649.4z"/>
	<path class="st41" d="M451.1,635.1c-1.8-1.9-4-3.3-6.4-4.3c-2.5-1-5.2-1.5-8.1-1.5c-3.6,0-6.8,0.6-9.6,1.9c-2.8,1.2-5.3,3-7.2,5.1
		c-2,2.2-3.5,4.8-4.5,7.7c-1.1,3-1.6,6.2-1.6,9.6c0,4.2,0.6,8,1.7,11.2c1.2,3.3,2.8,6,4.9,8.2c2.1,2.2,4.6,3.9,7.4,5
		c2.9,1.1,6,1.7,9.4,1.7c1.8,0,3.6-0.2,5.4-0.5c1.8-0.3,3.6-0.8,5.3-1.4c1.7-0.6,3.3-1.4,4.8-2.4c1.5-1,2.8-2.1,3.8-3.4l-2.4-3.2
		c-0.4-0.5-0.9-0.8-1.6-0.8c-0.5,0-1.2,0.3-2,0.8c-0.8,0.5-1.7,1-2.8,1.6c-1.1,0.6-2.5,1.1-4,1.6c-1.6,0.5-3.4,0.8-5.6,0.8
		c-2.3,0-4.4-0.4-6.3-1.1c-1.9-0.8-3.5-1.9-4.8-3.4s-2.4-3.5-3.2-5.7c-0.8-2.3-1.2-5-1.3-8.1h32.7c0.8,0,1.4-0.2,1.6-0.7
		c0.3-0.5,0.4-1.4,0.4-2.7c0-3.5-0.5-6.6-1.5-9.3C454.3,639.3,452.9,637,451.1,635.1z M422.4,649.3c0.6-4.3,2.1-7.6,4.5-10
		c2.4-2.4,5.7-3.6,9.8-3.6c2,0,3.7,0.3,5.3,1c1.5,0.7,2.8,1.6,3.9,2.8c1.1,1.2,1.9,2.7,2.4,4.3c0.5,1.7,0.8,3.5,0.8,5.5H422.4z"/>
	<polygon class="st41" points="535.2,609.8 480.8,609.8 480.8,617.7 503.4,617.7 503.4,679.3 512.8,679.3 512.8,617.7 535.2,617.7 	
		"/>
	<path class="st41" d="M567.6,635.1c-1.8-1.9-4-3.3-6.4-4.3c-2.5-1-5.2-1.5-8.1-1.5c-3.6,0-6.8,0.6-9.6,1.9c-2.8,1.2-5.3,3-7.2,5.1
		c-2,2.2-3.5,4.8-4.5,7.7c-1.1,3-1.6,6.2-1.6,9.6c0,4.2,0.6,8,1.7,11.2c1.2,3.3,2.8,6,4.9,8.2c2.1,2.2,4.6,3.9,7.4,5
		c2.9,1.1,6,1.7,9.4,1.7c1.8,0,3.6-0.2,5.4-0.5c1.8-0.3,3.6-0.8,5.3-1.4c1.7-0.6,3.3-1.4,4.8-2.4c1.5-1,2.8-2.1,3.8-3.4l-2.4-3.2
		c-0.4-0.5-0.9-0.8-1.6-0.8c-0.5,0-1.2,0.3-2,0.8c-0.8,0.5-1.7,1-2.8,1.6c-1.1,0.6-2.5,1.1-4,1.6c-1.6,0.5-3.4,0.8-5.6,0.8
		c-2.3,0-4.4-0.4-6.3-1.1c-1.9-0.8-3.5-1.9-4.8-3.4s-2.4-3.5-3.2-5.7c-0.8-2.3-1.2-5-1.3-8.1h32.7c0.8,0,1.4-0.2,1.6-0.7
		c0.3-0.5,0.4-1.4,0.4-2.7c0-3.5-0.5-6.6-1.5-9.3C570.8,639.3,569.4,637,567.6,635.1z M538.9,649.3c0.6-4.3,2.1-7.6,4.5-10
		c2.4-2.4,5.7-3.6,9.8-3.6c2,0,3.7,0.3,5.3,1c1.5,0.7,2.8,1.6,3.9,2.8c1.1,1.2,1.9,2.7,2.4,4.3c0.5,1.7,0.8,3.5,0.8,5.5H538.9z"/>
	<path class="st41" d="M607.5,629.3c-3.3,0-6.2,1-8.7,2.9s-4.5,4.6-6.2,8l-0.6-7.7c-0.1-0.9-0.4-1.5-0.7-1.8c-0.4-0.4-1-0.5-1.9-0.5
		h-4.9v49.1h8.6V648c1.4-3.3,3-5.9,5.1-7.6c2-1.7,4.5-2.6,7.5-2.6c1.7,0,3,0.2,3.9,0.5c0.9,0.3,1.6,0.5,2.1,0.5
		c0.8,0,1.3-0.4,1.5-1.2l1.1-6.4c-0.9-0.5-2-1-3.1-1.3C610.1,629.4,608.9,629.3,607.5,629.3z"/>
	<path class="st41" d="M646.5,670.6c-0.3,0-0.6,0.1-0.9,0.4s-0.8,0.5-1.2,0.8s-1.1,0.6-1.7,0.8c-0.7,0.2-1.4,0.4-2.4,0.4
		c-1.6,0-2.9-0.5-3.9-1.5c-1-1-1.5-2.5-1.5-4.6v-29.5H649v-6.3h-14.1v-16.9h-4.4c-0.5,0-1,0.2-1.4,0.5c-0.4,0.3-0.6,0.7-0.6,1.2
		l-2,15.2l-8,1v3.4c0,0.6,0.2,1.1,0.5,1.4c0.4,0.3,0.8,0.5,1.3,0.5h5.9v30.1c0,4.1,1,7.2,3.1,9.4c2.1,2.2,5.1,3.2,8.9,3.2
		c2.2,0,4.4-0.4,6.5-1.2c2.1-0.8,3.9-1.9,5.4-3.3l-2.5-4.1C647.4,670.9,647,670.6,646.5,670.6z"/>
	<path class="st41" d="M669.3,610.3c-0.6-0.6-1.2-1-2-1.3c-0.7-0.3-1.5-0.5-2.4-0.5c-0.8,0-1.6,0.2-2.4,0.5
		c-0.7,0.3-1.4,0.8-1.9,1.3c-0.6,0.6-1,1.2-1.3,2c-0.3,0.8-0.5,1.6-0.5,2.4c0,0.8,0.2,1.6,0.5,2.4c0.3,0.7,0.8,1.4,1.3,1.9
		c0.6,0.6,1.2,1,1.9,1.3c0.7,0.3,1.5,0.5,2.4,0.5c0.8,0,1.6-0.2,2.4-0.5c0.7-0.3,1.4-0.8,2-1.3c0.6-0.6,1-1.2,1.4-1.9
		s0.5-1.5,0.5-2.4c0-0.8-0.2-1.6-0.5-2.4S669.9,610.9,669.3,610.3z"/>
	<rect x="660.6" y="630.1" class="st41" width="8.6" height="49.1"/>
	<path class="st41" d="M716.1,634.4c-1.5-1.6-3.2-2.9-5.4-3.8c-2.1-0.9-4.6-1.4-7.3-1.4c-3.8,0-7.3,0.6-10.4,1.9
		c-3.1,1.3-6.1,3.2-8.8,5.9l1.6,2.8c0.3,0.5,0.6,0.8,1,1.1c0.4,0.3,0.9,0.5,1.5,0.5c0.7,0,1.5-0.3,2.3-0.8s1.7-1.1,2.7-1.8
		c1.1-0.7,2.3-1.3,3.7-1.8c1.4-0.5,3.2-0.8,5.3-0.8c3.2,0,5.6,1,7.2,3c1.6,2,2.4,4.9,2.4,8.7v3.9c-5.6,0-10.3,0.4-14.1,1.3
		c-3.8,0.9-7,2-9.3,3.4c-2.4,1.4-4.1,3-5.2,4.8s-1.6,3.7-1.6,5.6c0,2.2,0.4,4.2,1.1,5.8c0.7,1.6,1.7,3,2.9,4.1s2.7,1.9,4.3,2.4
		c1.7,0.5,3.5,0.8,5.4,0.8c1.9,0,3.6-0.2,5.1-0.5c1.5-0.3,3-0.8,4.3-1.4c1.4-0.6,2.7-1.4,3.9-2.3c1.2-0.9,2.5-2,3.8-3.1l1,4.6
		c0.2,0.8,0.5,1.4,1,1.6s1.2,0.4,2,0.4h3.8v-31.4c0-2.7-0.4-5.3-1.1-7.6C718.7,638,717.6,636,716.1,634.4z M712.1,667.4
		c-1,1-2,2-3,2.8c-1,0.8-2.1,1.5-3.2,2.1c-1.1,0.6-2.3,1-3.6,1.3c-1.3,0.3-2.7,0.5-4.2,0.5c-1.1,0-2.2-0.1-3.2-0.4
		c-1-0.3-1.8-0.7-2.5-1.3s-1.3-1.4-1.7-2.3s-0.6-2.1-0.6-3.4c0-1.4,0.4-2.6,1.2-3.7c0.8-1.1,2.1-2.1,3.8-2.9c1.7-0.8,4-1.5,6.8-2
		c2.8-0.5,6.2-0.8,10.1-0.8V667.4z"/>
	<rect x="734.6" y="630.1" class="st41" width="8.6" height="49.1"/>
	<path class="st41" d="M743.3,610.3c-0.6-0.6-1.2-1-2-1.3s-1.5-0.5-2.4-0.5c-0.8,0-1.6,0.2-2.4,0.5s-1.4,0.8-1.9,1.3
		c-0.6,0.6-1,1.2-1.3,2c-0.3,0.8-0.5,1.6-0.5,2.4c0,0.8,0.2,1.6,0.5,2.4c0.3,0.7,0.8,1.4,1.3,1.9c0.6,0.6,1.2,1,1.9,1.3
		c0.7,0.3,1.5,0.5,2.4,0.5c0.8,0,1.6-0.2,2.4-0.5c0.7-0.3,1.4-0.8,2-1.3c0.6-0.6,1-1.2,1.4-1.9c0.3-0.7,0.5-1.5,0.5-2.4
		c0-0.8-0.2-1.6-0.5-2.4C744.3,611.6,743.9,610.9,743.3,610.3z"/>
	<path class="st41" d="M781.6,629.3c-3.3,0-6.2,1-8.7,2.9s-4.5,4.6-6.2,8l-0.6-7.7c-0.1-0.9-0.4-1.5-0.7-1.8c-0.4-0.4-1-0.5-1.9-0.5
		h-4.9v49.1h8.6V648c1.4-3.3,3-5.9,5.1-7.6c2-1.7,4.5-2.6,7.5-2.6c1.7,0,3,0.2,3.9,0.5c0.9,0.3,1.6,0.5,2.1,0.5
		c0.8,0,1.3-0.4,1.5-1.2l1.1-6.4c-0.9-0.5-2-1-3.1-1.3C784.2,629.4,782.9,629.3,781.6,629.3z"/>
	<path class="st41" d="M831.6,635.1c-1.8-1.9-4-3.3-6.4-4.3c-2.5-1-5.2-1.5-8.1-1.5c-3.6,0-6.8,0.6-9.6,1.9c-2.8,1.2-5.3,3-7.2,5.1
		s-3.5,4.8-4.5,7.7s-1.6,6.2-1.6,9.6c0,4.2,0.6,8,1.7,11.2c1.2,3.3,2.8,6,4.9,8.2c2.1,2.2,4.6,3.9,7.4,5c2.9,1.1,6,1.7,9.4,1.7
		c1.8,0,3.6-0.2,5.4-0.5c1.8-0.3,3.6-0.8,5.3-1.4c1.7-0.6,3.3-1.4,4.8-2.4s2.8-2.1,3.8-3.4l-2.4-3.2c-0.4-0.5-0.9-0.8-1.6-0.8
		c-0.5,0-1.2,0.3-2,0.8c-0.8,0.5-1.7,1-2.8,1.6c-1.1,0.6-2.5,1.1-4,1.6c-1.6,0.5-3.4,0.8-5.6,0.8c-2.3,0-4.4-0.4-6.3-1.1
		c-1.9-0.8-3.5-1.9-4.8-3.4c-1.4-1.5-2.4-3.5-3.2-5.7c-0.8-2.3-1.2-5-1.3-8.1h32.7c0.8,0,1.4-0.2,1.6-0.7c0.3-0.5,0.4-1.4,0.4-2.7
		c0-3.5-0.5-6.6-1.5-9.3C834.8,639.3,833.4,637,831.6,635.1z M802.9,649.3c0.6-4.3,2.1-7.6,4.5-10c2.4-2.4,5.7-3.6,9.8-3.6
		c2,0,3.7,0.3,5.3,1c1.5,0.7,2.8,1.6,3.9,2.8s1.9,2.7,2.4,4.3s0.8,3.5,0.8,5.5H802.9z"/>
	<path class="st42" d="M918.2,654.4c1.1-3.6,1.7-7.2,1.8-11h-5.3c-0.6,0-1,0.2-1.4,0.5c-0.3,0.4-0.5,0.8-0.6,1.5
		c-0.3,2.4-0.8,4.8-1.5,7.2c-0.7,2.4-1.7,4.6-2.9,6.8l-20-20.3c-1.2-1.2-2.3-2.4-3.2-3.5c-0.9-1.1-1.6-2.2-2.1-3.2
		c-0.5-1-1-2.1-1.2-3.1c-0.3-1-0.4-2.1-0.4-3.2c0-1.5,0.3-2.8,0.8-4c0.5-1.2,1.2-2.3,2.1-3.2c0.9-0.9,2-1.6,3.3-2.2
		c1.3-0.5,2.7-0.8,4.4-0.8c1.5,0,2.8,0.2,3.9,0.7c1.1,0.5,2.1,1.1,2.9,1.8c0.8,0.7,1.4,1.6,1.9,2.5c0.5,0.9,0.9,1.8,1.1,2.6
		c0.2,0.6,0.4,1,0.8,1.2c0.4,0.2,0.8,0.3,1.2,0.3c0.1,0,0.3,0,0.4,0l5.4-1.1c-0.1-1.9-0.6-3.8-1.5-5.6s-2.1-3.4-3.6-4.7
		c-1.5-1.4-3.4-2.4-5.5-3.3c-2.1-0.8-4.4-1.2-7-1.2c-2.9,0-5.5,0.4-7.8,1.3c-2.3,0.9-4.3,2.1-5.9,3.6c-1.6,1.5-2.9,3.3-3.7,5.4
		c-0.9,2.1-1.3,4.3-1.3,6.6c0,2.5,0.5,5,1.4,7.3c0.9,2.4,2.4,4.8,4.4,7.3c-2.2,1-4.2,2.1-6.1,3.5c-1.8,1.4-3.4,2.9-4.8,4.6
		c-1.3,1.7-2.4,3.6-3.2,5.6c-0.8,2-1.1,4.2-1.1,6.4c0,3,0.6,5.7,1.8,8.1c1.2,2.4,2.8,4.4,4.7,6.1c2,1.7,4.2,2.9,6.7,3.8
		c2.5,0.9,5,1.3,7.6,1.3c4.8,0,9.1-0.9,13.1-2.6c4-1.7,7.5-4,10.5-7l7,7c0.7,0.7,1.4,1.2,1.9,1.4c0.6,0.2,1.3,0.3,2.3,0.3h8.3
		l-14.5-14.7C915.4,661.4,917.1,658,918.2,654.4z M895.9,671c-2.9,1.3-6.1,2-9.7,2c-1.7,0-3.3-0.3-4.9-0.8s-3.1-1.4-4.3-2.5
		c-1.3-1.1-2.3-2.4-3.1-4c-0.8-1.6-1.2-3.4-1.2-5.6c0-3,0.9-5.8,2.6-8.4c1.7-2.6,4.3-4.8,7.7-6.6l20.5,20.7
		C901.4,667.9,898.8,669.7,895.9,671z"/>
	<rect x="957" y="609.8" class="st41" width="9.4" height="69.5"/>
	<path class="st41" d="M1020.4,634.5c-1.4-1.6-3.1-2.9-5.1-3.8c-2.1-0.9-4.4-1.3-7.1-1.3c-3.5,0-6.5,0.7-9.1,2.2s-5,3.4-7.2,5.7
		l-0.7-5.3c-0.3-1.2-1.1-1.8-2.3-1.8h-5.1v49.1h8.6v-36.2c1.9-2.1,3.9-3.8,6.1-5c2.2-1.2,4.6-1.8,7.2-1.8c3.5,0,6.1,1,7.8,3.1
		c1.7,2.1,2.5,4.9,2.5,8.7v31.3h8.6V648c0-2.8-0.4-5.3-1.1-7.6S1021.8,636.1,1020.4,634.5z"/>
	<path class="st41" d="M1068.7,635.1c-1.7-1.8-3.6-3.3-5.7-4.3c-2.1-1-4.7-1.5-7.7-1.5c-3.3,0-6.3,0.7-8.9,2
		c-2.6,1.3-4.8,3.1-6.7,5.4c-1.8,2.3-3.2,5-4.2,8.1s-1.5,6.5-1.5,10.1c0,4.1,0.4,7.7,1.3,10.8c0.9,3.1,2.1,5.8,3.7,7.9
		s3.6,3.7,5.9,4.8c2.3,1.1,4.8,1.6,7.7,1.6c3.5,0,6.6-0.8,9.3-2.3c2.7-1.5,5.1-3.6,7.2-6.1l0.8,6c0.3,1.2,1.1,1.8,2.3,1.8h5.1v-71.4
		h-8.6V635.1z M1068.7,665.5c-1.8,2.4-3.7,4.2-5.8,5.5c-2.1,1.3-4.6,1.9-7.4,1.9c-2,0-3.8-0.3-5.3-1c-1.6-0.7-2.9-1.8-3.9-3.2
		s-1.9-3.3-2.4-5.6c-0.5-2.3-0.8-5-0.8-8.2c0-6,1.2-10.7,3.7-14c2.5-3.3,6-4.9,10.6-4.9c2.3,0,4.4,0.4,6.3,1.3
		c1.9,0.9,3.6,2.4,5.2,4.5V665.5z"/>
	<path class="st41" d="M1122.9,666.4c-1.9,2.1-3.9,3.8-6.2,5c-2.2,1.2-4.6,1.8-7.1,1.8c-3.5,0-6-1-7.8-3.1c-1.7-2-2.6-4.9-2.6-8.6
		v-31.3h-8.6v31.3c0,2.8,0.3,5.3,1,7.6c0.7,2.3,1.7,4.3,3.1,5.9c1.4,1.6,3.1,2.9,5.2,3.8s4.4,1.3,7.1,1.3c3.4,0,6.5-0.7,9.1-2.2
		s5-3.3,7.2-5.7l0.7,5.3c0.3,1.2,1.1,1.8,2.3,1.8h5.1v-49.1h-8.6V666.4z"/>
	<path class="st41" d="M1172.6,655.6c-1.2-1-2.6-1.8-4.1-2.4s-3.1-1.2-4.7-1.8c-1.6-0.5-3.2-1-4.7-1.5c-1.5-0.5-2.9-1-4.1-1.6
		c-1.2-0.6-2.2-1.3-2.9-2.2c-0.7-0.8-1.1-1.9-1.1-3.2c0-1,0.2-1.9,0.7-2.8c0.4-0.9,1.1-1.6,1.9-2.3s1.8-1.2,3-1.5
		c1.2-0.4,2.5-0.6,3.9-0.6c1.7,0,3.1,0.2,4.4,0.6c1.2,0.4,2.3,0.8,3.2,1.2s1.6,0.8,2.3,1.2c0.6,0.4,1.2,0.5,1.6,0.5
		c0.8,0,1.4-0.4,1.8-1.1l1.9-3.2c-1.9-1.8-4.1-3.2-6.7-4.2c-2.6-1-5.5-1.5-8.7-1.5c-2.8,0-5.3,0.4-7.4,1.2c-2.2,0.8-4,1.8-5.5,3.1
		c-1.5,1.3-2.6,2.8-3.4,4.6c-0.8,1.7-1.2,3.5-1.2,5.4c0,2.1,0.4,3.9,1.1,5.4c0.7,1.5,1.7,2.7,2.9,3.7c1.2,1,2.6,1.8,4.1,2.5
		c1.5,0.7,3.1,1.3,4.7,1.8c1.6,0.5,3.2,1,4.7,1.5c1.5,0.5,2.9,1,4.1,1.6c1.2,0.6,2.2,1.4,2.9,2.3c0.7,0.9,1.1,2,1.1,3.4
		c0,1.1-0.2,2.1-0.6,3.1s-1,1.8-1.9,2.6c-0.8,0.7-1.9,1.3-3.2,1.8s-2.7,0.7-4.4,0.7c-2,0-3.6-0.2-4.9-0.7c-1.3-0.5-2.4-1-3.3-1.5
		c-0.9-0.5-1.7-1-2.4-1.5c-0.6-0.5-1.3-0.7-1.8-0.7c-0.6,0-1.1,0.1-1.4,0.3c-0.4,0.2-0.7,0.5-0.9,1l-2,3.3c1.9,1.7,4.3,3.2,7.1,4.3
		c2.8,1.1,5.9,1.7,9.3,1.7c3,0,5.7-0.4,8-1.2s4.2-1.9,5.8-3.3c1.6-1.4,2.8-3.1,3.6-5c0.8-1.9,1.2-4,1.2-6.3c0-2-0.4-3.7-1.1-5.1
		S1173.8,656.6,1172.6,655.6z"/>
	<path class="st41" d="M1210.8,670.6c-0.3,0-0.6,0.1-0.9,0.4c-0.3,0.2-0.8,0.5-1.2,0.8c-0.5,0.3-1.1,0.6-1.7,0.8
		c-0.7,0.2-1.4,0.4-2.4,0.4c-1.6,0-2.9-0.5-3.9-1.5s-1.5-2.5-1.5-4.6v-29.5h14.1v-6.3h-14.1v-16.9h-4.4c-0.5,0-1,0.2-1.4,0.5
		c-0.4,0.3-0.6,0.7-0.6,1.2l-2,15.2l-8,1v3.4c0,0.6,0.2,1.1,0.5,1.4c0.4,0.3,0.8,0.5,1.3,0.5h5.9v30.1c0,4.1,1,7.2,3.1,9.4
		c2.1,2.2,5.1,3.2,8.9,3.2c2.2,0,4.4-0.4,6.5-1.2c2.1-0.8,3.9-1.9,5.4-3.3l-2.5-4.1C1211.7,670.9,1211.3,670.6,1210.8,670.6z"/>
	<path class="st41" d="M1247.1,629.3c-3.3,0-6.2,1-8.7,2.9s-4.5,4.6-6.2,8l-0.6-7.7c-0.1-0.9-0.4-1.5-0.7-1.8
		c-0.4-0.4-1-0.5-1.9-0.5h-4.9v49.1h8.6V648c1.4-3.3,3-5.9,5.1-7.6c2-1.7,4.5-2.6,7.5-2.6c1.7,0,3,0.2,3.9,0.5
		c0.9,0.3,1.6,0.5,2.1,0.5c0.8,0,1.3-0.4,1.5-1.2l1.1-6.4c-0.9-0.5-2-1-3.1-1.3C1249.7,629.4,1248.5,629.3,1247.1,629.3z"/>
	<path class="st41" d="M1272.7,610.3c-0.6-0.6-1.2-1-2-1.3s-1.5-0.5-2.4-0.5c-0.8,0-1.6,0.2-2.4,0.5s-1.4,0.8-1.9,1.3
		c-0.6,0.6-1,1.2-1.3,2c-0.3,0.8-0.5,1.6-0.5,2.4c0,0.8,0.2,1.6,0.5,2.4c0.3,0.7,0.8,1.4,1.3,1.9c0.6,0.6,1.2,1,1.9,1.3
		c0.7,0.3,1.5,0.5,2.4,0.5c0.8,0,1.6-0.2,2.4-0.5c0.7-0.3,1.4-0.8,2-1.3c0.6-0.6,1-1.2,1.4-1.9c0.3-0.7,0.5-1.5,0.5-2.4
		c0-0.8-0.2-1.6-0.5-2.4C1273.8,611.6,1273.3,610.9,1272.7,610.3z"/>
	<rect x="1264" y="630.1" class="st41" width="8.6" height="49.1"/>
	<path class="st41" d="M1321.9,635.1c-1.8-1.9-4-3.3-6.4-4.3c-2.5-1-5.2-1.5-8.1-1.5c-3.6,0-6.8,0.6-9.6,1.9c-2.8,1.2-5.3,3-7.2,5.1
		s-3.5,4.8-4.5,7.7s-1.6,6.2-1.6,9.6c0,4.2,0.6,8,1.7,11.2c1.2,3.3,2.8,6,4.9,8.2c2.1,2.2,4.6,3.9,7.4,5c2.9,1.1,6,1.7,9.4,1.7
		c1.8,0,3.6-0.2,5.4-0.5c1.8-0.3,3.6-0.8,5.3-1.4c1.7-0.6,3.3-1.4,4.8-2.4s2.8-2.1,3.8-3.4l-2.4-3.2c-0.4-0.5-0.9-0.8-1.6-0.8
		c-0.5,0-1.2,0.3-2,0.8c-0.8,0.5-1.7,1-2.8,1.6c-1.1,0.6-2.5,1.1-4,1.6c-1.6,0.5-3.4,0.8-5.6,0.8c-2.3,0-4.4-0.4-6.3-1.1
		c-1.9-0.8-3.5-1.9-4.8-3.4c-1.4-1.5-2.4-3.5-3.2-5.7c-0.8-2.3-1.2-5-1.3-8.1h32.7c0.8,0,1.4-0.2,1.6-0.7c0.3-0.5,0.4-1.4,0.4-2.7
		c0-3.5-0.5-6.6-1.5-9.3C1325.1,639.3,1323.7,637,1321.9,635.1z M1293.2,649.3c0.6-4.3,2.1-7.6,4.5-10c2.4-2.4,5.7-3.6,9.8-3.6
		c2,0,3.7,0.3,5.3,1c1.5,0.7,2.8,1.6,3.9,2.8s1.9,2.7,2.4,4.3s0.8,3.5,0.8,5.5H1293.2z"/>
	<rect x="1339.7" y="607.8" class="st41" width="8.6" height="71.4"/>
	<linearGradient id="SVGID_48_" gradientUnits="userSpaceOnUse" x1="168.8686" y1="64.9373" x2="175.0047" y2="443.8442">
		<stop  offset="0" style="stop-color:#66C2D4"/>
		<stop  offset="1" style="stop-color:#131E3B"/>
	</linearGradient>
	<path class="st43" d="M262.1,398.4c2.2,6.6,3.3,12.2,3.3,16.7c0,1.5-0.2,2.7-0.7,3.9c-3,2.6-8.6,4-16.3,4h-4.1v14.2h87.5v-13.9
		l-13.2-1.3c-4.4-1.2-7.6-2.4-10.3-4c-2.6-2.1-5.2-6.6-7.9-13.1l-7.2-17.9L179.7,59.3l-24.6,15.2L58.4,377.1l-7.9,22.6
		c-3.9,10.6-7.7,16-10.3,18.7c-4.2,3.1-10.3,4.6-18.4,4.6h-4.1v14.2H91V423h-4.1c-12.7,0-16.2-2.8-17.1-4l-0.2-0.2
		c-0.1-0.3-0.4-1.5-0.4-4.4c0-5.3,0.9-11.5,2.7-18.4l4.4-16.5L120.1,243h90.5l46.1,139.5L262.1,398.4z M125.7,224.7l38.7-120.8
		l39.9,120.8H125.7z"/>
	<linearGradient id="SVGID_49_" gradientUnits="userSpaceOnUse" x1="372.7412" y1="71.4414" x2="378.6928" y2="438.9525">
		<stop  offset="0" style="stop-color:#66C2D4"/>
		<stop  offset="0.4926" style="stop-color:#3D7189"/>
		<stop  offset="1" style="stop-color:#131E3B"/>
	</linearGradient>
	<path class="st44" d="M360.5,97l0.7,4.1c0.3,2,0.4,3.8,0.4,5.5v294.8l-0.9,11.2c-0.3,3.4-1.2,5.8-2.6,7c-3.5,2.3-8.5,3.4-14.9,3.4
		h-4.1v14.2H418v-13.9l-14.3-1.2c-7.1-1.5-8.2-4.1-8.9-9.5l-0.7-8.4V69.5h-56.4v12.9l12.8,3.1C356.8,87,359.1,89.7,360.5,97z"/>
	<linearGradient id="SVGID_50_" gradientUnits="userSpaceOnUse" x1="514.4518" y1="227.1141" x2="518.0156" y2="447.1783">
		<stop  offset="0" style="stop-color:#66C2D4"/>
		<stop  offset="1" style="stop-color:#131E3B"/>
	</linearGradient>
	<path class="st45" d="M592.3,420.1l4.8-4.5l0.1-0.1c3.1-3.1,5.3-6,7-9.1l0.3-0.6l0.3-2.4l0-3.9c0-4.9-1.8-9-5.1-11.5l-0.5-0.5
		l-0.3-0.3c-2-1.7-4.2-2.7-6.5-3l-0.5-0.1l-7.3,0.8l-0.6,0.3c-5,2.4-8.5,6.8-8.9,11.3l0,0.3c0,4.4,0.5,8.8,3.6,12.2l-5.2,4.9
		c-11.2,9.4-26.5,14.2-45.5,14.2c-12.3,0-24.2-4.4-35.2-13c-22.7-17.5-36.8-48.9-36.8-82c0-15.8,2.5-31.5,7.5-46.7
		c10.7-32.9,34.2-51.7,64.5-51.7c22.1,0,48.1,19.1,63.1,46.3l1,1.8l9.6,1.2l5.3-29.1l-1.5-1.5c-7.1-7.1-14.8-13.2-23-18.2
		c-17.1-10.2-35.1-15.1-55.2-15.1c-19,0-36.7,5.2-52.5,15.4c-31.5,20.3-51,56.8-51,95.4c0,27.9,11.1,56.9,29.6,77.6
		c18.6,21.1,45.6,33.2,74,33.2c19.6,0,38.1-5.1,55-15.1l3.5-2.1L592.3,420.1z"/>
	<linearGradient id="SVGID_51_" gradientUnits="userSpaceOnUse" x1="715.7559" y1="224.9149" x2="721.9126" y2="605.0882">
		<stop  offset="0" style="stop-color:#66C2D4"/>
		<stop  offset="1" style="stop-color:#131E3B"/>
	</linearGradient>
	<path class="st46" d="M818.4,238.3h4.1v-13.8h-73.2v13.4l14.2,1.5c7.5,1.5,7.5,2.5,7.5,7.7c0,5.7-0.9,12-2.7,18.6l-4.4,16.1
		l-23.8,75L724.5,405l-40.1-126.2l-5.6-16.2c-2.5-7.6-3.1-12.3-3.1-17c0-1.2,0.3-2.4,0.9-3.6c0.8-1.2,3.9-3.7,16.1-3.7h4.1v-13.8
		h-87.5v13.1l15.2,2.7c9.3,2.3,9.8,2.5,15.8,16.3l7.7,17.9l62,176.7l-35.7,111.6l-0.8,1.1c-2-1.5-4.1-2.2-6.5-2.2
		c-3,0-5.2,0.3-6.5,0.5l-0.3,0.1l-0.3,0.1c-4.4,1.5-8.1,5.7-9.2,10.7l-0.1,0.3c-0.9,6,0.8,11.2,4.7,14l0.6,0.4
		c2,1.7,4.1,2.9,6.3,3.5l0.5,0.2h5.5l3.3-0.8l2.6-0.8l0.7-0.6c3.4-3,6-5.5,7.6-8.1c1.5-1.6,2.8-3.5,3.9-5.5l3.5-6.8l1.8-4l0.1-0.1
		c2.9-7.4,4.9-13,6.4-18.3l35.8-111.4l23.2-73l1-2.9l23.9-75.1l0-0.1c2-7.1,4.3-14,7.4-22.4C796,243.8,800.9,238.3,818.4,238.3z"/>
	<linearGradient id="SVGID_52_" gradientUnits="userSpaceOnUse" x1="933.0759" y1="222.4967" x2="936.7117" y2="447.0076">
		<stop  offset="0" style="stop-color:#66C2D4"/>
		<stop  offset="1" style="stop-color:#131E3B"/>
	</linearGradient>
	<path class="st47" d="M1041.3,331.1c0-19.6-4.9-38.2-14.6-55.4c-20.1-34.7-55.5-55.4-94.8-55.4c-19,0-36.7,5.2-52.5,15.4
		c-31.5,20.3-51,56.8-51,95.4c0,27.9,11.1,56.9,29.6,77.6c18.6,21.1,45.6,33.2,74,33.2c19.8,0,38.3-5.2,55-15.3
		C1020.5,406.6,1041.3,370,1041.3,331.1z M932.6,428.1c-12.3,0-24.2-4.4-35.2-13c-22.7-17.5-36.8-48.9-36.8-82
		c0-15.8,2.5-31.5,7.5-46.7c10.7-32.9,34.2-51.7,64.5-51.7c10.7,0,22,4.3,34.3,13c25.8,19,41.9,51.2,41.9,84c0,16-2.4,31.5-7.1,46.3
		C994.5,400.9,976.6,428.1,932.6,428.1z"/>
	<linearGradient id="SVGID_53_" gradientUnits="userSpaceOnUse" x1="1162.8998" y1="227.2526" x2="1166.3608" y2="440.9748">
		<stop  offset="0" style="stop-color:#66C2D4"/>
		<stop  offset="1" style="stop-color:#131E3B"/>
	</linearGradient>
	<path class="st48" d="M1258.8,413.1l-0.7-8.4l0.2-10.4l-0.2-10.6l0.2-53.6c0-28.4-9.7-57.4-26-77.5c-17.9-22.1-40.9-33.3-68.2-33.3
		c-12.9,0-25.3,5-35.9,14.5c-7.7,6.9-14.4,16.1-20,27.5v-36.8h-61.1v13.7l15.5,2.4c5.5,1.3,7.5,2.8,8.3,3.6
		c1.5,1.6,4.8,7.2,4.8,23.3v134l-0.9,11.2c-0.3,3.4-1.2,5.8-2.6,7c-3.5,2.3-8.5,3.4-14.9,3.4h-4.1v14.2l26.8,0.6h52.1v-14.4
		l-9.7-0.7l-2.9-0.8l-0.2-0.1c-5.6-1.3-8.2-4-9.6-10c-1.4-6.4-1.5-9.1-1.5-11.1v-71.2c0-16.4,2.4-32,7.1-46.5
		c9.4-29.5,26.5-47.2,48.3-49.8c12.5,0.1,23.9,4.3,33.9,12.6c25.5,21.2,28.3,60.7,28.3,76.7l-0.2,54.1v25.3l-0.9,11.2
		c-0.3,3.4-1.2,5.8-2.6,7c-3.5,2.3-8.5,3.4-14.9,3.4h-4.1v14.2h78.8v-13.9l-14.3-1.2C1260.6,421,1259.5,418.5,1258.8,413.1z"/>
	<path class="st42" d="M939,308.2c-7.9-2.9-15.1,5-15.1,5c-12.2,18.7,0.7,34.5,0.7,34.5c11.5,11.5,23,1.4,23,1.4
		c10.1-10.8,5-25.9,5-25.9C949,311.1,939,308.2,939,308.2z"/>
</g>
<path class="st42" d="M1083.2,122.9"/>
</svg>
