<svg id="Calque_1" data-name="Calque 1" xmlns="http://www.w3.org/2000/svg" xmlns:xlink="http://www.w3.org/1999/xlink" viewBox="0 0 1421.55 613.85"><defs><style>.cls-1{fill:none;}.cls-2{fill:url(#Dégradé_sans_nom_18);}.cls-3{fill:url(#Dégradé_sans_nom_18-2);}.cls-4{fill:url(#Dégradé_sans_nom_2);}.cls-5{fill:url(#Dégradé_sans_nom_18-3);}.cls-6{fill:url(#Dégradé_sans_nom_18-4);}.cls-7{fill:url(#Dégradé_sans_nom_18-5);}.cls-8{fill:url(#Dégradé_sans_nom_18-6);}.cls-9{clip-path:url(#clip-path);}.cls-10{fill:url(#Dégradé_sans_nom_40);}.cls-11{clip-path:url(#clip-path-2);}.cls-12{fill:url(#Dégradé_sans_nom_18-8);}.cls-13{fill:url(#Dégradé_sans_nom_40-19);}.cls-14{fill:url(#Dégradé_sans_nom_18-9);}.cls-15{fill:url(#Dégradé_sans_nom_18-10);}.cls-16{fill:url(#Dégradé_sans_nom_18-11);}.cls-17{fill:url(#Dégradé_sans_nom_40-20);}.cls-18{fill:url(#Dégradé_sans_nom_18-12);}.cls-19{fill:url(#Dégradé_sans_nom_18-13);}.cls-20{fill:url(#Dégradé_sans_nom_40-21);}.cls-21{fill:url(#Dégradé_sans_nom_18-14);}.cls-22{fill:url(#Dégradé_sans_nom_18-15);}.cls-23{fill:url(#Dégradé_sans_nom_18-16);}.cls-24{fill:url(#Dégradé_sans_nom_18-17);}.cls-25{fill:url(#Dégradé_sans_nom_18-18);}.cls-26{fill:url(#Dégradé_sans_nom_18-19);}.cls-27{fill:url(#Dégradé_sans_nom_40-22);}.cls-28{fill:url(#Dégradé_sans_nom_18-20);}.cls-29{fill:url(#Dégradé_sans_nom_40-23);}.cls-30{fill:#ee4623;}</style><linearGradient id="Dégradé_sans_nom_18" x1="1096.82" y1="193.63" x2="1348.78" y2="193.63" gradientUnits="userSpaceOnUse"><stop offset="0" stop-color="#66c2d4"/><stop offset="1" stop-color="#131e3b"/></linearGradient><linearGradient id="Dégradé_sans_nom_18-2" x1="168.87" y1="64.94" x2="175" y2="443.84" xlink:href="#Dégradé_sans_nom_18"/><linearGradient id="Dégradé_sans_nom_2" x1="372.74" y1="71.44" x2="378.69" y2="438.95" gradientUnits="userSpaceOnUse"><stop offset="0" stop-color="#66c2d4"/><stop offset="0.49" stop-color="#3d7189"/><stop offset="1" stop-color="#131e3b"/></linearGradient><linearGradient id="Dégradé_sans_nom_18-3" x1="514.45" y1="227.11" x2="518.02" y2="447.18" xlink:href="#Dégradé_sans_nom_18"/><linearGradient id="Dégradé_sans_nom_18-4" x1="715.76" y1="224.91" x2="721.91" y2="605.09" xlink:href="#Dégradé_sans_nom_18"/><linearGradient id="Dégradé_sans_nom_18-5" x1="933.08" y1="222.5" x2="936.71" y2="447.01" xlink:href="#Dégradé_sans_nom_18"/><linearGradient id="Dégradé_sans_nom_18-6" x1="1162.9" y1="227.25" x2="1166.36" y2="440.97" xlink:href="#Dégradé_sans_nom_18"/><clipPath id="clip-path" transform="translate(-17.74 22.36)"><path class="cls-1" d="M1275.44,133.82s28.56,19.75,43.46,55.75c0,0,14.9,45.29,17.38,59.23,0,0,1.25,8.13,0,13.93,0,0-6.21,12.78-3.72,34.84,0,0,5,20.91,5,26.72,0,0,1.24,4.64-1.25,8.13,0,0,3.73-2.33,6.21,7,0,0,5,13.94,6.21,25.55,0,0,1.24,7-6.21,7,0,0-5,0-2.48-2.32,0,0,5-4.65-1.24-4.65,0,0-7.45-8.13-12.42-3.48,0,0,2.48,7-2.48,2.32,0,0-13.66-17.42-14.9-40.65,0,0-68.33-55.91-87.67-77.25-.17-.19-.34-.37-.5-.56-18.13-20.35-33.91-52.81-37-60.94-.09-.22-.16-.42-.23-.61-2.48-7-9.93-26.71,1.24-39.49,0,0,2.49-7-5-5.8,0,0-8.7,1.16-21.11-8.13,0,0-28.56,8.13-49.67,9.29,0,0-24.84,2.32-3.73-8.13,0,0,19.87-12.78,50.91-18.58,0,0,8.69-4.65,8.69-25.55,0,0,0-26.71,3.73-37.17,0,0,2.48-12.77,8.69-22.06,0,0,1.24-3.49,2.49-12.78,0,0,1.24,9.29,0,24.39,0,0,1.24-10.45,6.2-12.77,0,0-2.48,4.64,0,16.26,0,0,3.73,1.16,6.21-4.65,0,0,3.73-9.29,12.42-8.13,0,0-6.21,2.32-6.21,12.78,0,0,6.21,0,12.42-9.3,0,0,2.48-3.48,5-2.32a43.85,43.85,0,0,0-6.21,11.62s-1.24,4.64,0,5.8c0,0,11.17,2.33,11.17-4.64,0,0,0-16.26,1.24-19.75a65.5,65.5,0,0,1,3.73,12.78s1.24-10.45,5-15.1c0,0,3.72,2.32,5,16.26v8.13s1.25-10.45,6.21-15.1c0,0-5,13.94-2.48,26.71,0,0,1.24-15.09,7.45-18.58,0,0-2.48,4.65,0,12.78,0,0,5-4.65,6.21-8.13,0,0,2.48,11.61-5,19.74,0,0,8.69-9.29,13.66-10.45,0,0-7.45,8.13-7.45,12.77A57.63,57.63,0,0,0,1268,58.33s-3.73,8.13-7.45,11.62c0,0,3.72,0,8.69-4.65,0,0-2.48,7-5,8.13,0,0,6.21-3.48,8.7-5.81,0,0-2.49,8.13-5,9.3l3.72-1.17s-3.72,5.81-2.48,9.29a8,8,0,0,0,5-2.32s1.24,4.65-1.24,5.81c0,0-2.49,7,3.72,5.81h5s1.24,2.32-6.21,3.48c0,0,8.69,8.13,5,13.94,0,0,7.45,8.13,7.45,11.61,0,0-6.21,2.32-8.7,0,0,0,6.21,4.65,7.45,8.13C1286.61,131.5,1279.16,135,1275.44,133.82Z"/></clipPath><linearGradient id="Dégradé_sans_nom_40" x1="1173.15" y1="82.43" x2="1463.62" y2="386.41" gradientUnits="userSpaceOnUse"><stop offset="0" stop-color="#f05623"/><stop offset="0.28" stop-color="#ed5322"/><stop offset="0.5" stop-color="#e44921"/><stop offset="0.71" stop-color="#d4381e"/><stop offset="0.91" stop-color="#bf2019"/><stop offset="1" stop-color="#b21217"/></linearGradient><clipPath id="clip-path-2" transform="translate(-17.74 22.36)"><path class="cls-2" d="M1275.44,133.82s28.56,19.75,43.46,55.75c0,0,14.9,45.29,17.38,59.23,0,0,1.25,8.13,0,13.93,0,0-6.21,12.78-3.72,34.84,0,0,5,20.91,5,26.72,0,0,1.24,4.64-1.25,8.13,0,0,3.73-2.33,6.21,7,0,0,5,13.94,6.21,25.55,0,0,1.24,7-6.21,7,0,0-5,0-2.48-2.32,0,0,5-4.65-1.24-4.65,0,0-7.45-8.13-12.42-3.48,0,0,2.48,7-2.48,2.32,0,0-13.66-17.42-14.9-40.65,0,0-68.33-55.91-87.67-77.25-.17-.19-.34-.37-.5-.56-18.13-20.35-33.91-52.81-37-60.94-.09-.22-.16-.42-.23-.61-2.48-7-9.93-26.71,1.24-39.49,0,0,2.49-7-5-5.8,0,0-8.7,1.16-21.11-8.13,0,0-28.56,8.13-49.67,9.29,0,0-24.84,2.32-3.73-8.13,0,0,19.87-12.78,50.91-18.58,0,0,8.69-4.65,8.69-25.55,0,0,0-26.71,3.73-37.17,0,0,2.48-12.77,8.69-22.06,0,0,1.24-3.49,2.49-12.78,0,0,1.24,9.29,0,24.39,0,0,1.24-10.45,6.2-12.77,0,0-2.48,4.64,0,16.26,0,0,3.73,1.16,6.21-4.65,0,0,3.73-9.29,12.42-8.13,0,0-6.21,2.32-6.21,12.78,0,0,6.21,0,12.42-9.3,0,0,2.48-3.48,5-2.32a43.85,43.85,0,0,0-6.21,11.62s-1.24,4.64,0,5.8c0,0,11.17,2.33,11.17-4.64,0,0,0-16.26,1.24-19.75a65.5,65.5,0,0,1,3.73,12.78s1.24-10.45,5-15.1c0,0,3.72,2.32,5,16.26v8.13s1.25-10.45,6.21-15.1c0,0-5,13.94-2.48,26.71,0,0,1.24-15.09,7.45-18.58,0,0-2.48,4.65,0,12.78,0,0,5-4.65,6.21-8.13,0,0,2.48,11.61-5,19.74,0,0,8.69-9.29,13.66-10.45,0,0-7.45,8.13-7.45,12.77A57.63,57.63,0,0,0,1268,58.33s-3.73,8.13-7.45,11.62c0,0,3.72,0,8.69-4.65,0,0-2.48,7-5,8.13,0,0,6.21-3.48,8.7-5.81,0,0-2.49,8.13-5,9.3l3.72-1.17s-3.72,5.81-2.48,9.29a8,8,0,0,0,5-2.32s1.24,4.65-1.24,5.81c0,0-2.49,7,3.72,5.81h5s1.24,2.32-6.21,3.48c0,0,8.69,8.13,5,13.94,0,0,7.45,8.13,7.45,11.61,0,0-6.21,2.32-8.7,0,0,0,6.21,4.65,7.45,8.13C1286.61,131.5,1279.16,135,1275.44,133.82Z"/></clipPath><linearGradient id="Dégradé_sans_nom_18-8" x1="1296.58" y1="292.34" x2="1135.04" y2="168.42" xlink:href="#Dégradé_sans_nom_18"/><linearGradient id="Dégradé_sans_nom_40-19" x1="1186.53" y1="179.13" x2="1260.34" y2="256.37" xlink:href="#Dégradé_sans_nom_40"/><linearGradient id="Dégradé_sans_nom_18-9" x1="1118.86" y1="56.83" x2="1208.67" y2="97.97" gradientTransform="matrix(0.99, 0.23, -0.23, 0.98, 85.3, -108.76)" xlink:href="#Dégradé_sans_nom_18"/><linearGradient id="Dégradé_sans_nom_18-10" x1="1333.74" y1="373.55" x2="1297.59" y2="379.45" xlink:href="#Dégradé_sans_nom_18"/><linearGradient id="Dégradé_sans_nom_18-11" x1="1357.03" y1="394.29" x2="1364.4" y2="300.61" xlink:href="#Dégradé_sans_nom_18"/><linearGradient id="Dégradé_sans_nom_40-20" x1="1313.78" y1="324.15" x2="1345.89" y2="357.76" xlink:href="#Dégradé_sans_nom_40"/><linearGradient id="Dégradé_sans_nom_18-12" x1="1257.34" y1="160.18" x2="1116.45" y2="96.74" xlink:href="#Dégradé_sans_nom_18"/><linearGradient id="Dégradé_sans_nom_18-13" x1="1247.12" y1="88.21" x2="1264.55" y2="167.79" xlink:href="#Dégradé_sans_nom_18"/><linearGradient id="Dégradé_sans_nom_40-21" x1="1174.33" y1="44.64" x2="1257.33" y2="131.49" xlink:href="#Dégradé_sans_nom_40"/><linearGradient id="Dégradé_sans_nom_18-14" x1="1176.21" y1="109.49" x2="1250.01" y2="143.29" xlink:href="#Dégradé_sans_nom_18"/><linearGradient id="Dégradé_sans_nom_18-15" x1="1187.19" y1="16.42" x2="1254.32" y2="53.3" xlink:href="#Dégradé_sans_nom_18"/><linearGradient id="Dégradé_sans_nom_18-16" x1="1141.86" y1="97.69" x2="1385.63" y2="97.69" xlink:href="#Dégradé_sans_nom_18"/><linearGradient id="Dégradé_sans_nom_18-17" x1="1352.12" y1="95.88" x2="1260.71" y2="-5.7" xlink:href="#Dégradé_sans_nom_18"/><linearGradient id="Dégradé_sans_nom_18-18" x1="1277.89" y1="201.78" x2="1301.23" y2="252.34" xlink:href="#Dégradé_sans_nom_18"/><linearGradient id="Dégradé_sans_nom_18-19" x1="1247.52" y1="35.94" x2="1272.49" y2="90.03" xlink:href="#Dégradé_sans_nom_18"/><linearGradient id="Dégradé_sans_nom_40-22" x1="1286.85" y1="207.46" x2="1335.99" y2="258.88" xlink:href="#Dégradé_sans_nom_40"/><linearGradient id="Dégradé_sans_nom_18-20" x1="1108.45" y1="120.15" x2="1119.8" y2="144.75" xlink:href="#Dégradé_sans_nom_18"/><linearGradient id="Dégradé_sans_nom_40-23" x1="1161.75" y1="98.47" x2="1238.53" y2="178.83" xlink:href="#Dégradé_sans_nom_40"/></defs><title>logo-slider</title><path class="cls-3" d="M262.09,398.4c2.19,6.57,3.3,12.2,3.3,16.73a10.14,10.14,0,0,1-.7,3.89c-3,2.6-8.64,4-16.29,4h-4.08v14.25h87.51V423.36l-13.19-1.25a41.22,41.22,0,0,1-10.33-4c-2.57-2.13-5.23-6.56-7.91-13.15L293.18,387,179.67,59.29,155.09,74.46,58.45,377.09l-7.92,22.6c-3.89,10.62-7.73,16-10.33,18.68C36,421.44,29.85,423,21.82,423H17.74v14.25H91V423H86.89c-12.73,0-16.2-2.78-17.1-4l-.16-.22a14.3,14.3,0,0,1-.43-4.36,74.91,74.91,0,0,1,2.67-18.37l4.42-16.52L120.06,243h90.52L256.7,382.47ZM125.72,224.74,164.43,103.9l39.94,120.84Z" transform="translate(-17.74 22.36)"/><path class="cls-4" d="M360.49,97l.68,4.12a38.5,38.5,0,0,1,.43,5.51V401.39l-.92,11.23c-.33,3.38-1.23,5.78-2.58,6.95-3.5,2.27-8.51,3.42-14.89,3.42h-4.08v14.25H418V423.33l-14.26-1.24c-7.13-1.51-8.23-4.08-8.94-9.49l-.68-8.4V69.55H337.73v12.9l12.76,3.11C356.76,87,359.1,89.69,360.49,97Z" transform="translate(-17.74 22.36)"/><path class="cls-5" d="M592.33,420.07l4.84-4.55.08-.08a39,39,0,0,0,7-9.14l.34-.64.34-2.35,0-3.86c0-4.88-1.82-8.95-5.14-11.51l-.5-.5-.28-.25a12.76,12.76,0,0,0-6.48-3l-.52-.08-7.27.84-.61.29c-5,2.36-8.5,6.8-8.88,11.31v.34c0,4.38.47,8.84,3.57,12.16L573.63,414c-11.21,9.41-26.52,14.18-45.5,14.18-12.33,0-24.17-4.35-35.2-13-22.7-17.53-36.8-48.94-36.8-82a149.34,149.34,0,0,1,7.53-46.72c10.71-32.87,34.21-51.72,64.47-51.72,22.09,0,48,19.06,63.14,46.34l1,1.82,9.63,1.2,5.29-29.07-1.51-1.51a122.42,122.42,0,0,0-23-18.18,105.2,105.2,0,0,0-55.22-15.08,95.22,95.22,0,0,0-52.53,15.4c-31.47,20.26-51,56.82-51,95.41,0,27.88,11.07,56.9,29.58,77.6a98.63,98.63,0,0,0,74,33.22,106.31,106.31,0,0,0,55-15.09l3.51-2.11Z" transform="translate(-17.74 22.36)"/><path class="cls-6" d="M818.38,238.28h4.08V224.5H749.23v13.36l14.22,1.54c7.55,1.53,7.55,2.49,7.55,7.67a72.54,72.54,0,0,1-2.67,18.58l-4.42,16.08-23.85,75L724.54,405,684.4,278.84l-5.64-16.2c-2.54-7.64-3.06-12.31-3.06-17a8.25,8.25,0,0,1,.9-3.65c.78-1.2,3.89-3.74,16.08-3.74h4.08V224.5H609.25v13.12l15.18,2.68c9.26,2.26,9.84,2.46,15.82,16.34l7.67,17.89,62,176.71L674.24,562.87l-.8,1.13a10.51,10.51,0,0,0-6.51-2.2,39,39,0,0,0-6.52.52l-.31,0-.31.1a14.8,14.8,0,0,0-9.23,10.66l-.06.3c-.94,6,.81,11.19,4.67,14l.65.43a17.08,17.08,0,0,0,6.25,3.47l.55.16h5.52l3.3-.82,2.63-.76.69-.59c3.41-3,6-5.49,7.62-8.08a22.86,22.86,0,0,0,3.86-5.53l3.51-6.79,1.75-4,.06-.15c2.9-7.36,4.88-13,6.43-18.32l35.8-111.38,23.15-73,1-2.86,23.87-75.14,0-.13c2-7.12,4.28-14,7.37-22.35C796,243.82,800.92,238.28,818.38,238.28Z" transform="translate(-17.74 22.36)"/><path class="cls-7" d="M1041.32,331.1a111.56,111.56,0,0,0-14.59-55.41c-20.08-34.69-55.52-55.4-94.82-55.4a95.17,95.17,0,0,0-52.53,15.4c-31.48,20.26-51,56.82-51,95.41,0,27.88,11.06,56.9,29.58,77.6a98.61,98.61,0,0,0,74,33.22,104.22,104.22,0,0,0,55-15.33A111.85,111.85,0,0,0,1041.32,331.1Zm-180.7,2.11a149.62,149.62,0,0,1,7.52-46.72c10.71-32.87,34.21-51.72,64.47-51.72,10.75,0,22,4.27,34.34,13,25.82,19,41.87,51.15,41.87,84a152.41,152.41,0,0,1-7.07,46.28c-7.26,22.83-25.16,50.05-69.14,50.05-12.33,0-24.16-4.35-35.19-13C874.72,397.65,860.62,366.24,860.62,333.21Z" transform="translate(-17.74 22.36)"/><path class="cls-8" d="M1258.75,413.07l-.67-8.35.23-10.42-.24-10.57.24-53.56c0-28.44-9.71-57.4-26-77.47-17.91-22.13-40.87-33.35-68.24-33.35-12.91,0-25.3,5-35.85,14.54-7.68,6.92-14.37,16.12-20,27.45V224.5h-61.06v13.67l15.49,2.38c5.5,1.27,7.53,2.81,8.25,3.62,1.45,1.63,4.82,7.16,4.82,23.27v134l-.92,11.23c-.34,3.38-1.23,5.78-2.58,6.95-3.51,2.27-8.52,3.42-14.89,3.42h-4.08v14.16l26.78.56h52.06V423.28l-9.68-.71-2.87-.82-.21-.06c-5.64-1.29-8.23-4-9.57-10-1.42-6.41-1.54-9.07-1.54-11.06V329.46a151.07,151.07,0,0,1,7.06-46.51c9.38-29.51,26.54-47.2,48.31-49.82,12.47.05,23.87,4.3,33.91,12.63,25.5,21.16,28.26,60.68,28.26,76.67l-.24,54.08v25.35l-.91,11.23c-.34,3.38-1.23,5.78-2.59,7-3.5,2.27-8.51,3.42-14.89,3.42h-4.08v14.25H1282V423.8l-14.25-1.24C1260.56,421.05,1259.46,418.48,1258.75,413.07Z" transform="translate(-17.74 22.36)"/><g class="cls-9"><path class="cls-10" d="M1335.26,343.29s5.71-86.58-148.56-177L1109.57,196Z" transform="translate(-17.74 22.36)"/><path class="cls-10" d="M1168.81,169.55s11.58.55,12.86,1.59c11.61,9.43,70.82,58.74,83.68,94.26,0,0-74.1-87-96.54-95.85Z" transform="translate(-17.74 22.36)"/><path class="cls-10" d="M1176.69,166.27s145,135.86,124.13,208.06c0,0,87.43-28.67,81.48-81.1,0,0-40.31-54.3-138.4-100.38A592.06,592.06,0,0,0,1176.69,166.27Z" transform="translate(-17.74 22.36)"/><path class="cls-10" d="M1352.57,378.1s-86.73,92.66-92,86.48-19.71-236,149.8-239.68l28.91,119.84-38.1,155.67Z" transform="translate(-17.74 22.36)"/><path class="cls-10" d="M1349.34,265.84S1320.67,289.3,1326,375.89c0,0,68,4,68,2.43S1349.34,265.84,1349.34,265.84Z" transform="translate(-17.74 22.36)"/><path class="cls-10" d="M1333.33,294s-17,12.24-9.73,91.1l7.3-8.16S1321.77,359.91,1333.33,294Z" transform="translate(-17.74 22.36)"/><path class="cls-10" d="M1329.75,182.8s-63.61,1.28-131.33-9.21c-63.15-9.79-129.87-29.81-151.92-70.65l185-11.92Z" transform="translate(-17.74 22.36)"/><path class="cls-10" d="M1115.1,70.08S1171.53,164.4,1336.39,184l34.3-116.18Z" transform="translate(-17.74 22.36)"/><path class="cls-10" d="M1164.05,46.5s-12.91,3.06,115.23,79.54c0,0-107.07-54.38-126.1-75.12S1164.05,46.5,1164.05,46.5Z" transform="translate(-17.74 22.36)"/><path class="cls-10" d="M1153.47,108.23s127.69-2.9,168.32,58l20.31,23.22S1159.28,148.86,1153.47,108.23Z" transform="translate(-17.74 22.36)"/><path class="cls-10" d="M1161.48,74.19s125.8,22,166.06-2.15l-5-53.17-184.18-7.52Z" transform="translate(-17.74 22.36)"/><path class="cls-10" d="M1141.86,27s31.93,60.94,243.77,145.1c0,0,0-52.29-21.44-105.95-.57-1.44-1.17-2.88-1.77-4.32C1339.2,6.66,1141.86,27,1141.86,27Z" transform="translate(-17.74 22.36)"/><path class="cls-10" d="M1188.3-22.36s-8.71,113.18,168.31,194.43l55.14-130.59Z" transform="translate(-17.74 22.36)"/><path class="cls-10" d="M1237.63,189.49s45.95,58.71,50,119c0,0-4-18.54,51.59-59.49C1339.2,249,1322.27,232.75,1237.63,189.49Z" transform="translate(-17.74 22.36)"/><path class="cls-10" d="M1193.13,28s71.23,68.66,92.6,109.24C1285.73,137.25,1366.11-31.3,1193.13,28Z" transform="translate(-17.74 22.36)"/><path class="cls-10" d="M1269.88,206s60.73,32.63,78.86,49.86l-6.35,4.08S1302.06,226.43,1269.88,206Z" transform="translate(-17.74 22.36)"/><path class="cls-10" d="M1183.46,138.22s-59-15.48-88-27.09l-37.73,43.53S1172.82,153.69,1183.46,138.22Z" transform="translate(-17.74 22.36)"/><path class="cls-10" d="M1151.82,100.21s-17,29.23,112.17,68.66c0,0-89.06-12.92-115.57-48.27,0,0-12.92-12.23-13.6-21.75S1151.82,100.21,1151.82,100.21Z" transform="translate(-17.74 22.36)"/></g><path class="cls-2" d="M1275.44,133.82s28.56,19.75,43.46,55.75c0,0,14.9,45.29,17.38,59.23,0,0,1.25,8.13,0,13.93,0,0-6.21,12.78-3.72,34.84,0,0,5,20.91,5,26.72,0,0,1.24,4.64-1.25,8.13,0,0,3.73-2.33,6.21,7,0,0,5,13.94,6.21,25.55,0,0,1.24,7-6.21,7,0,0-5,0-2.48-2.32,0,0,5-4.65-1.24-4.65,0,0-7.45-8.13-12.42-3.48,0,0,2.48,7-2.48,2.32,0,0-13.66-17.42-14.9-40.65,0,0-68.33-55.91-87.67-77.25-.17-.19-.34-.37-.5-.56-18.13-20.35-33.91-52.81-37-60.94-.09-.22-.16-.42-.23-.61-2.48-7-9.93-26.71,1.24-39.49,0,0,2.49-7-5-5.8,0,0-8.7,1.16-21.11-8.13,0,0-28.56,8.13-49.67,9.29,0,0-24.84,2.32-3.73-8.13,0,0,19.87-12.78,50.91-18.58,0,0,8.69-4.65,8.69-25.55,0,0,0-26.71,3.73-37.17,0,0,2.48-12.77,8.69-22.06,0,0,1.24-3.49,2.49-12.78,0,0,1.24,9.29,0,24.39,0,0,1.24-10.45,6.2-12.77,0,0-2.48,4.64,0,16.26,0,0,3.73,1.16,6.21-4.65,0,0,3.73-9.29,12.42-8.13,0,0-6.21,2.32-6.21,12.78,0,0,6.21,0,12.42-9.3,0,0,2.48-3.48,5-2.32a43.85,43.85,0,0,0-6.21,11.62s-1.24,4.64,0,5.8c0,0,11.17,2.33,11.17-4.64,0,0,0-16.26,1.24-19.75a65.5,65.5,0,0,1,3.73,12.78s1.24-10.45,5-15.1c0,0,3.72,2.32,5,16.26v8.13s1.25-10.45,6.21-15.1c0,0-5,13.94-2.48,26.71,0,0,1.24-15.09,7.45-18.58,0,0-2.48,4.65,0,12.78,0,0,5-4.65,6.21-8.13,0,0,2.48,11.61-5,19.74,0,0,8.69-9.29,13.66-10.45,0,0-7.45,8.13-7.45,12.77A57.63,57.63,0,0,0,1268,58.33s-3.73,8.13-7.45,11.62c0,0,3.72,0,8.69-4.65,0,0-2.48,7-5,8.13,0,0,6.21-3.48,8.7-5.81,0,0-2.49,8.13-5,9.3l3.72-1.17s-3.72,5.81-2.48,9.29a8,8,0,0,0,5-2.32s1.24,4.65-1.24,5.81c0,0-2.49,7,3.72,5.81h5s1.24,2.32-6.21,3.48c0,0,8.69,8.13,5,13.94,0,0,7.45,8.13,7.45,11.61,0,0-6.21,2.32-8.7,0,0,0,6.21,4.65,7.45,8.13C1286.61,131.5,1279.16,135,1275.44,133.82Z" transform="translate(-17.74 22.36)"/><g class="cls-11"><path class="cls-12" d="M1335.26,343.29s5.71-86.58-148.56-177L1109.57,196Z" transform="translate(-17.74 22.36)"/><path class="cls-13" d="M1168.81,169.55s11.58.55,12.86,1.59c11.61,9.43,70.82,58.74,83.68,94.26,0,0-74.1-87-96.54-95.85Z" transform="translate(-17.74 22.36)"/><path class="cls-14" d="M1176.69,166.27s145,135.86,124.13,208.06c0,0,87.43-28.67,81.48-81.1,0,0-40.31-54.3-138.4-100.38A592.06,592.06,0,0,0,1176.69,166.27Z" transform="translate(-17.74 22.36)"/><path class="cls-15" d="M1352.57,378.1s-86.73,92.66-92,86.48-19.71-236,149.8-239.68l28.91,119.84-38.1,155.67Z" transform="translate(-17.74 22.36)"/><path class="cls-16" d="M1349.34,265.84S1320.67,289.3,1326,375.89c0,0,68,4,68,2.43S1349.34,265.84,1349.34,265.84Z" transform="translate(-17.74 22.36)"/><path class="cls-17" d="M1333.33,294s-17,12.24-9.73,91.1l7.3-8.16S1321.77,359.91,1333.33,294Z" transform="translate(-17.74 22.36)"/><path class="cls-18" d="M1329.75,182.8s-63.61,1.28-131.33-9.21c-63.15-9.79-129.87-29.81-151.92-70.65l185-11.92Z" transform="translate(-17.74 22.36)"/><path class="cls-19" d="M1115.1,70.08S1171.53,164.4,1336.39,184l34.3-116.18Z" transform="translate(-17.74 22.36)"/><path class="cls-20" d="M1164.05,46.5s-12.91,3.06,115.23,79.54c0,0-107.07-54.38-126.1-75.12S1164.05,46.5,1164.05,46.5Z" transform="translate(-17.74 22.36)"/><path class="cls-21" d="M1153.47,108.23s127.69-2.9,168.32,58l20.31,23.22S1159.28,148.86,1153.47,108.23Z" transform="translate(-17.74 22.36)"/><path class="cls-22" d="M1161.48,74.19s125.8,22,166.06-2.15l-5-53.17-184.18-7.52Z" transform="translate(-17.74 22.36)"/><path class="cls-23" d="M1141.86,27s31.93,60.94,243.77,145.1c0,0,0-52.29-21.44-105.95-.57-1.44-1.17-2.88-1.77-4.32C1339.2,6.66,1141.86,27,1141.86,27Z" transform="translate(-17.74 22.36)"/><path class="cls-24" d="M1188.3-22.36s-8.71,113.18,168.31,194.43l55.14-130.59Z" transform="translate(-17.74 22.36)"/><path class="cls-25" d="M1237.63,189.49s45.95,58.71,50,119c0,0-4-18.54,51.59-59.49C1339.2,249,1322.27,232.75,1237.63,189.49Z" transform="translate(-17.74 22.36)"/><path class="cls-26" d="M1193.13,28s71.23,68.66,92.6,109.24C1285.73,137.25,1366.11-31.3,1193.13,28Z" transform="translate(-17.74 22.36)"/><path class="cls-27" d="M1269.88,206s60.73,32.63,78.86,49.86l-6.35,4.08S1302.06,226.43,1269.88,206Z" transform="translate(-17.74 22.36)"/><path class="cls-28" d="M1183.46,138.22s-59-15.48-88-27.09l-37.73,43.53S1172.82,153.69,1183.46,138.22Z" transform="translate(-17.74 22.36)"/><path class="cls-29" d="M1151.82,100.21s-17,29.23,112.17,68.66c0,0-89.06-12.92-115.57-48.27,0,0-12.92-12.23-13.6-21.75S1151.82,100.21,1151.82,100.21Z" transform="translate(-17.74 22.36)"/></g><path class="cls-30" d="M923.89,313.23s7.19-7.91,15.09-5c0,0,10.07,2.87,13.66,15.1,0,0,5,15.09-5,25.87,0,0-11.5,10.07-23-1.43C924.61,347.74,911.67,331.92,923.89,313.23Z" transform="translate(-17.74 22.36)"/><path class="cls-30" d="M1083.15,122.92" transform="translate(-17.74 22.36)"/></svg>