<svg id="Calque_1" data-name="Calque 1" xmlns="http://www.w3.org/2000/svg" xmlns:xlink="http://www.w3.org/1999/xlink" viewBox="0 0 45 40.39"><defs><style>.cls-1{fill:url(#Dégradé_sans_nom_3);}.cls-2{fill:url(#Dégradé_sans_nom_3-2);}.cls-3{fill:url(#Dégradé_sans_nom_3-3);}.cls-4{fill:url(#Dégradé_sans_nom_3-4);}</style><linearGradient id="Dégradé_sans_nom_3" x1="6.47" y1="35.29" x2="6.47" y2="34.31" gradientTransform="matrix(45.98, 0, 0, -41.27, -274.99, 1458.86)" gradientUnits="userSpaceOnUse"><stop offset="0" stop-color="#3ab2c6"/><stop offset="1" stop-color="#131e3b"/></linearGradient><linearGradient id="Dégradé_sans_nom_3-2" x1="152.84" y1="-177.46" x2="152.84" y2="-178.44" gradientTransform="matrix(1.8, 0, 0, -1.8, -239.63, -299.05)" xlink:href="#Dégradé_sans_nom_3"/><linearGradient id="Dégradé_sans_nom_3-3" x1="45.44" y1="-20.53" x2="45.44" y2="-21.51" gradientTransform="matrix(6.11, 0, 0, -6.11, -255.05, -96.03)" xlink:href="#Dégradé_sans_nom_3"/><linearGradient id="Dégradé_sans_nom_3-4" x1="45.43" y1="15.7" x2="45.43" y2="14.72" gradientTransform="matrix(6.11, 0, 0, -13.67, -255.06, 228.26)" xlink:href="#Dégradé_sans_nom_3"/></defs><title>picto-difficile</title><g id="alert"><path id="Tracé_7" data-name="Tracé 7" class="cls-1" d="M39.69,42.72H5.31A5.31,5.31,0,0,1,0,37.41a5.4,5.4,0,0,1,.71-2.66L17.9,5a5.31,5.31,0,0,1,9.2,0L34.27,17.4a.88.88,0,0,1-1.52.88L25.58,5.86a3.56,3.56,0,0,0-4.86-1.3,3.52,3.52,0,0,0-1.3,1.3L2.23,35.63A3.57,3.57,0,0,0,5.31,41H39.69a3.56,3.56,0,0,0,3.55-3.56,3.5,3.5,0,0,0-.48-1.78L36.7,25.13a.88.88,0,0,1,1.53-.88l6.06,10.5a5.31,5.31,0,0,1-4.6,8Z" transform="translate(0 -2.33)"/><path id="Tracé_8" data-name="Tracé 8" class="cls-2" d="M35.49,22.15a.88.88,0,1,1,.88-.88.9.9,0,0,1-.26.62A.87.87,0,0,1,35.49,22.15Z" transform="translate(0 -2.33)"/><path id="Tracé_9" data-name="Tracé 9" class="cls-3" d="M22.5,35.33a3,3,0,1,1,3-3h0A3,3,0,0,1,22.5,35.33Zm0-4.22a1.23,1.23,0,1,0,1.23,1.23h0A1.23,1.23,0,0,0,22.5,31.11Z" transform="translate(0 -2.33)"/><path id="Tracé_10" data-name="Tracé 10" class="cls-4" d="M22.5,27.09a3,3,0,0,1-3-3V16.7a3,3,0,1,1,6,0v7.41A3,3,0,0,1,22.5,27.09Zm0-11.62a1.23,1.23,0,0,0-1.23,1.23h0v7.41a1.23,1.23,0,0,0,2.46,0V16.7a1.23,1.23,0,0,0-1.23-1.23Z" transform="translate(0 -2.33)"/></g></svg>