<svg id="Calque_1" data-name="Calque 1" xmlns="http://www.w3.org/2000/svg" xmlns:xlink="http://www.w3.org/1999/xlink" viewBox="0 0 40.03 44.93"><defs><style>.cls-1{fill:url(#Dégradé_sans_nom_3);}.cls-2{fill:url(#Dégradé_sans_nom_3-2);}.cls-3{fill:url(#Dégradé_sans_nom_3-3);}</style><linearGradient id="Dégradé_sans_nom_3" x1="15.88" y1="21.83" x2="15.88" y2="20.91" gradientTransform="matrix(17.95, 0, 0, -17.14, -262.28, 390.73)" gradientUnits="userSpaceOnUse"><stop offset="0" stop-color="#3ab2c6"/><stop offset="1" stop-color="#131e3b"/></linearGradient><linearGradient id="Dégradé_sans_nom_3-2" x1="6.86" y1="36.82" x2="6.86" y2="35.9" gradientTransform="matrix(43.41, 0, 0, -48.73, -275, 1794.17)" xlink:href="#Dégradé_sans_nom_3"/><linearGradient id="Dégradé_sans_nom_3-3" x1="11.14" y1="29.67" x2="11.14" y2="28.75" gradientTransform="matrix(25.94, 0, 0, -25.94, -266.28, 782.2)" xlink:href="#Dégradé_sans_nom_3"/></defs><title>picto-controle</title><g id="badge"><path id="Tracé_3" data-name="Tracé 3" class="cls-1" d="M30.39,22.07l-4.93-.71-2.2-4.46a.66.66,0,0,0-.88-.3.72.72,0,0,0-.3.3l-2.2,4.46L15,22.08a.65.65,0,0,0-.56.74.69.69,0,0,0,.19.38l3.56,3.47-.84,4.9a.66.66,0,0,0,.54.76.68.68,0,0,0,.42-.06L22.67,30c4.65,2.41,4.41,2.39,4.71,2.39a.66.66,0,0,0,.65-.66.41.41,0,0,0,0-.11l-.84-4.9,3.56-3.47a.65.65,0,0,0,0-.93A.62.62,0,0,0,30.39,22.07ZM26,26a.68.68,0,0,0-.19.58l.68,3.93c-3.72-1.93-3.55-1.93-3.84-1.93s-.11,0-3.83,1.93l.67-3.93a.63.63,0,0,0-.19-.58l-2.85-2.79,3.94-.57a.67.67,0,0,0,.5-.36l1.76-3.57,1.77,3.57a.65.65,0,0,0,.49.36l3.95.57Z" transform="translate(-2.66 -0.07)"/><path id="Tracé_4" data-name="Tracé 4" class="cls-2" d="M41,15.82a10.17,10.17,0,0,1,.67-10.56,1.33,1.33,0,0,0-.18-1.66L38.33.48A1.35,1.35,0,0,0,36.57.36c-4,3.09-8.3,3.09-13,0a1.67,1.67,0,0,0-1.82,0c-4.69,3.11-8.94,3.11-13,0A1.34,1.34,0,0,0,7,.48L3.9,3.6a1.35,1.35,0,0,0-.19,1.66,10.13,10.13,0,0,1,.67,10.56,16.91,16.91,0,0,0-1.49,4.66.66.66,0,0,0,1.3.22,15.44,15.44,0,0,1,1.38-4.3A11.54,11.54,0,0,0,4.83,4.56a0,0,0,0,1,0,0C8,1.33,8,1.39,8,1.4c4.72,3.61,9.65,3.26,14.52,0a.32.32,0,0,1,.37,0c5.14,3.4,10,3.39,14.51,0h0c3.32,3.34,3.14,3.12,3.12,3.15a11.51,11.51,0,0,0-.74,11.84,15.31,15.31,0,0,1,1.55,5.86c.56,9.53-4.68,16.37-16,20.92a7.06,7.06,0,0,1-5.27,0C9,38.76,3.76,32.18,4,23.07a.66.66,0,0,0-.66-.66.65.65,0,0,0-.66.62C2.39,33.89,9.46,40.35,19.55,44.4a8.41,8.41,0,0,0,6.24,0c5.74-2.3,9.9-5.11,12.71-8.59A19.29,19.29,0,0,0,41,15.82Z" transform="translate(-2.66 -0.07)"/><path id="Tracé_5" data-name="Tracé 5" class="cls-3" d="M29.31,14.49a12,12,0,1,0,2,1.68.66.66,0,0,0-.93-.05.65.65,0,0,0-.05.93l0,0a10.66,10.66,0,1,1-1.78-1.49.65.65,0,0,0,.91-.16.67.67,0,0,0-.15-.92l0,0Z" transform="translate(-2.66 -0.07)"/></g></svg>