<svg id="Calque_1" data-name="Calque 1" xmlns="http://www.w3.org/2000/svg" xmlns:xlink="http://www.w3.org/1999/xlink" viewBox="0 0 44.9 44.15"><defs><style>.cls-1{fill:url(#Dégradé_sans_nom_3);}.cls-2{fill:url(#Dégradé_sans_nom_3-2);}.cls-3{fill:url(#Dégradé_sans_nom_3-3);}</style><linearGradient id="Dégradé_sans_nom_3" x1="161.23" y1="-188.47" x2="161.23" y2="-189.49" gradientTransform="matrix(1.71, 0, 0, -1.71, -268.91, -288.93)" gradientUnits="userSpaceOnUse"><stop offset="0" stop-color="#3ab2c6"/><stop offset="1" stop-color="#131e3b"/></linearGradient><linearGradient id="Dégradé_sans_nom_3-2" x1="13.29" y1="28.86" x2="13.29" y2="27.83" gradientTransform="matrix(21.55, 0, 0, -24.71, -256.22, 713.46)" xlink:href="#Dégradé_sans_nom_3"/><linearGradient id="Dégradé_sans_nom_3-3" x1="6.79" y1="26.16" x2="6.79" y2="25.14" gradientTransform="matrix(43.81, 0, 0, -21.21, -275, 577.61)" xlink:href="#Dégradé_sans_nom_3"/></defs><title>picto-durable</title><g id="tree"><g id="Groupe_2" data-name="Groupe 2"><g id="Groupe_1" data-name="Groupe 1"><circle id="Ellipse_1" data-name="Ellipse 1" class="cls-1" cx="7.12" cy="34.6" r="0.88"/></g></g><g id="Groupe_4" data-name="Groupe 4"><g id="Groupe_3" data-name="Groupe 3"><path id="Tracé_1" data-name="Tracé 1" class="cls-2" d="M40.44,8.16H35.28a4.8,4.8,0,0,0-3.07,1.11V6.63A6.24,6.24,0,0,0,26,.39H20.12a.87.87,0,0,0-.88.87h0V3.67a6.26,6.26,0,0,0,6.25,6.25h5v8.89c-.23,0-.47,0-.7,0a10.85,10.85,0,0,0-6.37,2,.88.88,0,0,0-.15,1.23.86.86,0,0,0,1.17.19,9.12,9.12,0,0,1,6.73-1.61l.12,0a9.15,9.15,0,0,1,6.51,4.59A.88.88,0,0,0,39,25.6a.89.89,0,0,0,.35-1.2,10.93,10.93,0,0,0-7.09-5.33V16.23H36.5a4.82,4.82,0,0,0,4.82-4.82V9a.88.88,0,0,0-.87-.88Zm-10,0h-5A4.5,4.5,0,0,1,21,3.67V2.14h5a4.49,4.49,0,0,1,4.49,4.49Zm9.1,3.25a3.06,3.06,0,0,1-3.06,3.06H32.22V13a3.06,3.06,0,0,1,3.07-3.06h4.28Z" transform="translate(0 -0.39)"/></g></g><g id="Groupe_6" data-name="Groupe 6"><g id="Groupe_5" data-name="Groupe 5"><path id="Tracé_2" data-name="Tracé 2" class="cls-3" d="M44.6,28.84a3.44,3.44,0,0,0-4.53-1.75h0l-5.73,2.64a.86.86,0,0,0-.4,1.17.88.88,0,0,0,1.13.42l5.72-2.64a1.68,1.68,0,0,1,1.36,3.08L30.41,37a6.8,6.8,0,0,1-5.78-.13l-4.29-2.13a8.55,8.55,0,0,0-7.28-.17l-.08,0L9.77,27.29l4.45-2a8.85,8.85,0,0,1,6.67-.21l8.63,3.16a1.56,1.56,0,0,1-1,2.93L21.81,29a.88.88,0,0,0-.56,1.66l6.67,2.25a3.31,3.31,0,0,0,2.21-6.24l-8.64-3.17a10.62,10.62,0,0,0-8,.26L9,25.7a2.21,2.21,0,0,0-2.75-.82L.52,27.41a.88.88,0,0,0-.52.8V43.66a.88.88,0,0,0,.88.88.9.9,0,0,0,.39-.1l11.18-5.65a2.22,2.22,0,0,0,1.22-2.62l.1,0a6.79,6.79,0,0,1,5.79.13l4.29,2.13a8.49,8.49,0,0,0,7.27.16l11.73-5.17A3.45,3.45,0,0,0,44.6,28.84ZM12,36.94a.44.44,0,0,1-.24.26l0,0-9.93,5V38.39l2.6-1.27a.88.88,0,0,0,.36-1.19.87.87,0,0,0-1.13-.38l-1.83.89V28.78L7,26.49a.46.46,0,0,1,.61.24l4.13,9.34h0l.22.51A.41.41,0,0,1,12,36.94Z" transform="translate(0 -0.39)"/></g></g></g></svg>