<svg id="Calque_1" data-name="Calque 1" xmlns="http://www.w3.org/2000/svg" xmlns:xlink="http://www.w3.org/1999/xlink" viewBox="0 0 36.91 45"><defs><style>.cls-1{fill:url(#Dégradé_sans_nom_3);}.cls-2{fill:url(#Dégradé_sans_nom_3-2);}.cls-3{fill:url(#Dégradé_sans_nom_3-3);}</style><linearGradient id="Dégradé_sans_nom_3" x1="135.49" y1="-148" x2="135.49" y2="-148.87" gradientTransform="matrix(2.03, 0, 0, -2.03, -244.48, -263.33)" gradientUnits="userSpaceOnUse"><stop offset="0" stop-color="#3ab2c6"/><stop offset="1" stop-color="#131e3b"/></linearGradient><linearGradient id="Dégradé_sans_nom_3-2" x1="136.85" y1="-148" x2="136.85" y2="-148.87" gradientTransform="matrix(2.03, 0, 0, -2.03, -264.83, -263.33)" xlink:href="#Dégradé_sans_nom_3"/><linearGradient id="Dégradé_sans_nom_3-3" x1="6.96" y1="37.35" x2="6.96" y2="36.48" gradientTransform="matrix(42.72, 0, 0, -52.08, -275, 1945.1)" xlink:href="#Dégradé_sans_nom_3"/></defs><title>picto-professionnel</title><g id="worker"><g id="Groupe_14" data-name="Groupe 14"><g id="Groupe_13" data-name="Groupe 13"><path id="Tracé_11" data-name="Tracé 11" class="cls-1" d="M31.1,37.71a.88.88,0,1,0,.88.87h0A.87.87,0,0,0,31.1,37.71Z" transform="translate(-3.86 0)"/></g></g><g id="Groupe_16" data-name="Groupe 16"><g id="Groupe_15" data-name="Groupe 15"><path id="Tracé_12" data-name="Tracé 12" class="cls-2" d="M13.53,37.71a.88.88,0,1,0,.88.87h0A.88.88,0,0,0,13.53,37.71Z" transform="translate(-3.86 0)"/></g></g><g id="Groupe_18" data-name="Groupe 18"><g id="Groupe_17" data-name="Groupe 17"><path id="Tracé_13" data-name="Tracé 13" class="cls-3" d="M39.16,33.15a9.94,9.94,0,0,0-3.94-3.53.86.86,0,0,0-.5-.23,9.16,9.16,0,0,0-3.62-.74H28.47V26.33a10.06,10.06,0,0,0,3.15-5H32a3.52,3.52,0,0,0,2.59-5.9l.16-.15a2.64,2.64,0,0,0,0-3.73,2.77,2.77,0,0,0-1-.63,9.7,9.7,0,0,0-7-8.58A2.8,2.8,0,0,0,24.08,0H20.56A2.8,2.8,0,0,0,18,2.37a9.72,9.72,0,0,0-7,8.58,2.63,2.63,0,0,0-.85,4.51,3.52,3.52,0,0,0,2.58,5.9H13a10.05,10.05,0,0,0,2.46,4.32,8.43,8.43,0,0,0,.69.65v2.32H13.53a9.16,9.16,0,0,0-3.62.74.89.89,0,0,0-.5.23,10.06,10.06,0,0,0-5.55,9v5.54a.87.87,0,0,0,.88.88H39.89a.87.87,0,0,0,.88-.88V38.58A10,10,0,0,0,39.16,33.15Zm-30,10.09H5.62V38.58a8.39,8.39,0,0,1,3.51-6.75ZM32,19.6h0a8.64,8.64,0,0,0,0-.88V16.08a1.76,1.76,0,0,1,0,3.52ZM17.92,4.23V8.17a.88.88,0,0,0,1.76,0h0V2.9c0-.54.46-1.14.88-1.14h3.52c.42,0,.88.6.88,1.14V8.17a.88.88,0,0,0,1.75,0h0V4.23a8,8,0,0,1,5.23,6.58H12.7A7.94,7.94,0,0,1,17.92,4.23ZM12.65,19.6a1.76,1.76,0,1,1,0-3.51v2.63a8.51,8.51,0,0,0,0,.88Zm0-5.27h-.88a.88.88,0,0,1,0-1.76H32.86a.88.88,0,0,1,0,1.76H12.65Zm1.92,6a0,0,0,0,0,0,0,8.35,8.35,0,0,1-.15-1.57V16.08H30.23v2.64a8.27,8.27,0,0,1-.15,1.57,0,0,0,0,1,0,0A8.29,8.29,0,0,1,27,25.26a7.7,7.7,0,0,1-10.27-.8,8.23,8.23,0,0,1-2.17-4.14Zm6.87,22.92h-7v-2a.88.88,0,1,0-1.76,0v2H10.89V30.89a7.67,7.67,0,0,1,1.76-.43v5.48a.88.88,0,1,0,1.76,0V30.41h2.26l4.77,5ZM17.92,29.18V27.54a9.26,9.26,0,0,0,8.79,0v1.64l-4.39,4.61ZM33.74,43.24H32v-2a.88.88,0,1,0-1.75,0h0v2h-7V35.42l4.78-5h2.26v5.53a.88.88,0,1,0,1.75,0V30.46a7.67,7.67,0,0,1,1.76.43Zm5.27,0H35.5V31.83A8.42,8.42,0,0,1,39,38.58Z" transform="translate(-3.86 0)"/></g></g></g></svg>