<svg id="Calque_1" data-name="Calque 1" xmlns="http://www.w3.org/2000/svg" xmlns:xlink="http://www.w3.org/1999/xlink" viewBox="0 0 45 45"><defs><style>.cls-1{fill:url(#Dégradé_sans_nom_3);}.cls-2{fill:url(#Dégradé_sans_nom_3-2);}.cls-3{fill:url(#Dégradé_sans_nom_3-3);}</style><linearGradient id="Dégradé_sans_nom_3" x1="21.21" y1="43.24" x2="21.21" y2="42.38" gradientTransform="matrix(16.08, 16.08, 36.47, -36.47, -1879.7, 1242.67)" gradientUnits="userSpaceOnUse"><stop offset="0" stop-color="#3ab2c6"/><stop offset="1" stop-color="#131e3b"/></linearGradient><linearGradient id="Dégradé_sans_nom_3-2" x1="299.13" y1="-9.67" x2="299.13" y2="-10.53" gradientTransform="matrix(0, 1.58, 1.58, 0, 31.06, -447.86)" xlink:href="#Dégradé_sans_nom_3"/><linearGradient id="Dégradé_sans_nom_3-3" x1="297.76" y1="-11.37" x2="297.76" y2="-12.22" gradientTransform="matrix(0, 1.58, 1.58, 0, 54.11, -447.84)" xlink:href="#Dégradé_sans_nom_3"/></defs><title>picto-nacelle</title><g id="ladder"><g id="Groupe_8" data-name="Groupe 8"><g id="Groupe_7" data-name="Groupe 7"><path id="Tracé_6" data-name="Tracé 6" class="cls-1" d="M37.55,21.22,45,13.77l-2.68-2.68L39.42,14,31,5.58l2.9-2.9L31.23,0,0,31.23l2.68,2.68L5.58,31,14,39.42l-2.9,2.9L13.77,45,34.34,24.43l-1-.95L13.77,43.09,13,42.32,42.32,13l.77.77L36.6,20.26Zm-21.09-3L2.68,32l-.77-.77L31.23,1.91l.77.77ZM15,38.47,6.53,30.05l1-.95,8.41,8.41Zm1.91-1.92L8.45,28.14l2.77-2.77,8.41,8.41-2.77,2.78Zm5.64-5.64-5.29-5.29-1,1,5.29,5.29-.95,1-8.42-8.42,4.69-4.68,8.41,8.41L22.5,30.91Zm3.73-3.73-8.41-8.41.95-.95,8.41,8.41-.95,1Zm1.91-1.91-8.41-8.41,2.77-2.77,8.41,8.41-2.77,2.77Zm3.73-3.73-8.41-8.41.95-1,8.42,8.42-1,.95Zm1.91-1.91-8.41-8.41,2.77-2.77,8.41,8.41-2.77,2.77Zm3.73-3.73L29.1,7.49l.95-1L38.47,15l-1,1Z" transform="translate(0 0)"/></g></g><g id="Groupe_10" data-name="Groupe 10"><g id="Groupe_9" data-name="Groupe 9"><rect id="Rectangle_17" data-name="Rectangle 17" class="cls-2" x="14.43" y="23.8" width="1.35" height="1.35" transform="translate(-12.88 17.85) rotate(-45)"/></g></g><g id="Groupe_12" data-name="Groupe 12"><g id="Groupe_11" data-name="Groupe 11"><rect id="Rectangle_18" data-name="Rectangle 18" class="cls-3" x="34.81" y="21.65" width="1.35" height="1.35" transform="translate(-5.4 31.63) rotate(-45)"/></g></g></g></svg>